<svg version="1.1" viewBox="0.0 0.0 152.6797900262467 155.35695538057743" fill="none" stroke="none" stroke-linecap="square" stroke-miterlimit="10" xmlns:xlink="http://www.w3.org/1999/xlink" xmlns="http://www.w3.org/2000/svg"><clipPath id="p.0"><path d="m0 0l152.6798 0l0 155.35695l-152.6798 0l0 -155.35695z" clip-rule="nonzero"/></clipPath><g clip-path="url(#p.0)"><path fill="#000000" fill-opacity="0.0" d="m0 0l152.6798 0l0 155.35695l-152.6798 0z" fill-rule="evenodd"/><path fill="#666666" d="m5.6469817 77.678474c0 -39.042614 31.650293 -70.69291 70.69292 -70.69291c18.748924 0 36.729942 7.447982 49.987434 20.705475c13.257492 13.257492 20.705475 31.23851 20.705475 49.987434c0 39.042618 -31.650291 70.69291 -70.69291 70.69291c-39.04262 0 -70.69292 -31.650291 -70.69292 -70.69291z" fill-rule="evenodd"/><path stroke="#434343" stroke-width="8.0" stroke-linejoin="round" stroke-linecap="butt" d="m5.6469817 77.678474c0 -39.042614 31.650293 -70.69291 70.69292 -70.69291c18.748924 0 36.729942 7.447982 49.987434 20.705475c13.257492 13.257492 20.705475 31.23851 20.705475 49.987434c0 39.042618 -31.650291 70.69291 -70.69291 70.69291c-39.04262 0 -70.69292 -31.650291 -70.69292 -70.69291z" fill-rule="evenodd"/><path fill="#434343" d="m63.04331 77.673225c0 -7.340599 5.950733 -13.291336 13.29134 -13.291336c3.5250778 0 6.9057846 1.4003372 9.398392 3.8929443c2.4926147 2.492607 3.8929443 5.873314 3.8929443 9.398392c0 7.3406067 -5.950737 13.291344 -13.291336 13.291344c-7.3406067 0 -13.29134 -5.950737 -13.29134 -13.291344z" fill-rule="evenodd"/><path stroke="#999999" stroke-width="2.0" stroke-linejoin="round" stroke-linecap="butt" d="m63.04331 77.673225c0 -7.340599 5.950733 -13.291336 13.29134 -13.291336c3.5250778 0 6.9057846 1.4003372 9.398392 3.8929443c2.4926147 2.492607 3.8929443 5.873314 3.8929443 9.398392c0 7.3406067 -5.950737 13.291344 -13.291336 13.291344c-7.3406067 0 -13.29134 -5.950737 -13.29134 -13.291344z" fill-rule="evenodd"/><path fill="#000000" fill-opacity="0.0" d="m111.043304 77.673225c0 -7.340599 5.950737 -13.291336 13.291344 -13.291336c3.5250778 0 6.9057846 1.4003372 9.398399 3.8929443c2.4925995 2.492607 3.8929443 5.873314 3.8929443 9.398392c0 7.3406067 -5.9507446 13.291344 -13.291344 13.291344c-7.3406067 0 -13.291344 -5.950737 -13.291344 -13.291344z" fill-rule="evenodd"/><path stroke="#999999" stroke-width="4.0" stroke-linejoin="round" stroke-linecap="butt" d="m111.043304 77.673225c0 -7.340599 5.950737 -13.291336 13.291344 -13.291336c3.5250778 0 6.9057846 1.4003372 9.398399 3.8929443c2.4925995 2.492607 3.8929443 5.873314 3.8929443 9.398392c0 7.3406067 -5.9507446 13.291344 -13.291344 13.291344c-7.3406067 0 -13.291344 -5.950737 -13.291344 -13.291344z" fill-rule="evenodd"/><path fill="#000000" fill-opacity="0.0" d="m124.33465 64.38189l0 26.58268" fill-rule="evenodd"/><path stroke="#999999" stroke-width="4.0" stroke-linejoin="round" stroke-linecap="butt" d="m124.33465 64.38189l0 26.58268" fill-rule="evenodd"/><path fill="#000000" fill-opacity="0.0" d="m111.043304 77.673225l26.582687 0" fill-rule="evenodd"/><path stroke="#999999" stroke-width="4.0" stroke-linejoin="round" stroke-linecap="butt" d="m111.043304 77.673225l26.582687 0" fill-rule="evenodd"/></g></svg>