<svg version="1.1" viewBox="0.0 0.0 100.0 136.71653543307087" fill="none" stroke="none" stroke-linecap="square" stroke-miterlimit="10" xmlns:xlink="http://www.w3.org/1999/xlink" xmlns="http://www.w3.org/2000/svg"><clipPath id="p.0"><path d="m0 0l100.0 0l0 136.71654l-100.0 0l0 -136.71654z" clip-rule="nonzero"/></clipPath><g clip-path="url(#p.0)"><path fill="#000000" fill-opacity="0.0" d="m0 0l100.0 0l0 136.71654l-100.0 0z" fill-rule="evenodd"/><path fill="#cccccc" d="m29.8084 52.401608c0 -0.9190445 0.74503136 -1.664074 1.6640759 -1.664074l38.089172 0c0.4413376 0 0.86460876 0.17531967 1.1766815 0.48739624c0.31207275 0.31207275 0.48739624 0.7353363 0.48739624 1.1766777l0 6.656101c0 0.9190445 -0.74503326 1.6640778 -1.6640778 1.6640778l-38.089172 0c-0.9190445 0 -1.6640759 -0.74503326 -1.6640759 -1.6640778z" fill-rule="evenodd"/><path stroke="#cccccc" stroke-width="1.0" stroke-linejoin="round" stroke-linecap="butt" d="m29.8084 52.401608c0 -0.9190445 0.74503136 -1.664074 1.6640759 -1.664074l38.089172 0c0.4413376 0 0.86460876 0.17531967 1.1766815 0.48739624c0.31207275 0.31207275 0.48739624 0.7353363 0.48739624 1.1766777l0 6.656101c0 0.9190445 -0.74503326 1.6640778 -1.6640778 1.6640778l-38.089172 0c-0.9190445 0 -1.6640759 -0.74503326 -1.6640759 -1.6640778z" fill-rule="evenodd"/><path fill="#434343" d="m43.622047 60.49344l1.7952766 0l0 68.44095l-1.7952766 0z" fill-rule="evenodd"/><path fill="#434343" d="m54.958004 60.49344l1.7952766 0l0 52.53543l-1.7952766 0z" fill-rule="evenodd"/><path fill="#cccccc" d="m50.517067 5.477704l0 0c4.9033737 0 9.605915 1.9478569 13.073124 5.415065c3.467205 3.467208 5.415066 8.169752 5.415066 13.073124l0 26.771652c0 1.7166138E-4 -1.373291E-4 3.0899048E-4 -3.0517578E-4 3.0899048E-4l-36.976074 -3.0899048E-4c-1.6784668E-4 0 -3.0517578E-4 -1.373291E-4 -3.0517578E-4 -3.0517578E-4l3.0517578E-4 -26.771347c0 -10.210745 8.277447 -18.48819 18.48819 -18.48819z" fill-rule="evenodd"/><path stroke="#cccccc" stroke-width="1.0" stroke-linejoin="round" stroke-linecap="butt" d="m50.517067 5.477704l0 0c4.9033737 0 9.605915 1.9478569 13.073124 5.415065c3.467205 3.467208 5.415066 8.169752 5.415066 13.073124l0 26.771652c0 1.7166138E-4 -1.373291E-4 3.0899048E-4 -3.0517578E-4 3.0899048E-4l-36.976074 -3.0899048E-4c-1.6784668E-4 0 -3.0517578E-4 -1.373291E-4 -3.0517578E-4 -3.0517578E-4l3.0517578E-4 -26.771347c0 -10.210745 8.277447 -18.48819 18.48819 -18.48819z" fill-rule="evenodd"/><path fill="#f3f3f3" d="m33.99475 50.737534l4.29134 0c-0.47401047 0 -0.85826874 2.2350502 -0.85826874 4.9921265c0 2.7570724 0.38425827 4.9921265 0.85826874 4.9921265l-4.29134 0c-0.47400665 0 -0.85826874 -2.235054 -0.85826874 -4.9921265c0 -2.7570763 0.38426208 -4.9921265 0.85826874 -4.9921265z" fill-rule="evenodd"/><path fill="#f3f3f3" d="m34.220734 24.154856l4.4409447 0l0 26.582678l-4.4409447 0z" fill-rule="evenodd"/><path fill="#f3f3f3" d="m34.225975 25.878922c-0.09914017 -6.488735 2.7326431 -12.366247 7.0856476 -14.706641l1.2260056 4.396365c-2.4056702 1.8219852 -3.9288673 5.8191605 -3.8814697 10.185764z" fill-rule="evenodd"/><path fill="#cccccc" d="m39.35651 19.40156c1.148056 -4.609621 3.8837013 -7.895216 6.110237 -7.338583c1.0692177 0.26730442 1.8756332 1.403018 2.241848 3.1572952c0.36621094 1.7542782 0.2622223 3.9834175 -0.28909302 6.197035c-1.148056 4.609621 -3.8837051 7.895216 -6.110237 7.338583c-2.226532 -0.556633 -3.100811 -4.744709 -1.952755 -9.35433z" fill-rule="evenodd"/><path fill="#ffffff" d="m65.95289 21.454664c-0.9327545 -4.707493 -3.413929 -8.52113 -6.689766 -10.282384l-1.2260056 4.396365c1.8738632 1.4192104 3.2434883 4.188816 3.7098198 7.501877z" fill-rule="evenodd"/><path fill="#cccccc" d="m61.218235 19.40156c-1.148056 -4.609621 -3.8837013 -7.895216 -6.110237 -7.338583c-1.0692177 0.26730442 -1.875637 1.403018 -2.241848 3.1572952c-0.36621475 1.7542782 -0.2622223 3.9834175 0.28909302 6.197035c1.148056 4.609621 3.8837013 7.895216 6.110237 7.338583c2.226532 -0.556633 3.100811 -4.744709 1.952755 -9.35433z" fill-rule="evenodd"/><path fill="#000000" fill-opacity="0.0" d="m69.0024 49.938454c0.049606323 0.71334076 -7.999737 1.2977524 -18.087364 1.3132095c-10.087624 0.015457153 -18.487556 -0.54375076 -18.875145 -1.2565727l18.47454 -0.050209045z" fill-rule="evenodd"/><path fill="#000000" fill-opacity="0.0" d="m69.0024 49.938454c0.049606323 0.71334076 -7.999737 1.2977524 -18.087364 1.3132095c-10.087624 0.015457153 -18.487556 -0.54375076 -18.875145 -1.2565727" fill-rule="evenodd"/><path stroke="#ffffff" stroke-width="1.0" stroke-linejoin="round" stroke-linecap="butt" d="m69.0024 49.938454c0.049606323 0.71334076 -7.999737 1.2977524 -18.087364 1.3132095c-10.087624 0.015457153 -18.487556 -0.54375076 -18.875145 -1.2565727" fill-rule="evenodd"/><path fill="#f3f3f3" d="m66.35171 50.51706l0 -20.535433l-3.4330711 20.535433z" fill-rule="evenodd"/></g></svg>