<svg version="1.1" viewBox="0.0 0.0 177.01049868766404 209.1942257217848" fill="none" stroke="none" stroke-linecap="square" stroke-miterlimit="10" xmlns:xlink="http://www.w3.org/1999/xlink" xmlns="http://www.w3.org/2000/svg"><clipPath id="p.0"><path d="m0 0l177.0105 0l0 209.19423l-177.0105 0l0 -209.19423z" clip-rule="nonzero"/></clipPath><g clip-path="url(#p.0)"><path fill="#000000" fill-opacity="0.0" d="m0 0l177.0105 0l0 209.19423l-177.0105 0z" fill-rule="evenodd"/><path fill="#d9d9d9" d="m65.15492 184.39473l7.244095 0l0 20.440948l-7.244095 0z" fill-rule="evenodd"/><path stroke="#b7b7b7" stroke-width="2.0" stroke-linejoin="round" stroke-linecap="butt" d="m65.15492 184.39473l7.244095 0l0 20.440948l-7.244095 0z" fill-rule="evenodd"/><path fill="#d9d9d9" d="m104.87146 184.39473l7.244095 0l0 20.440948l-7.244095 0z" fill-rule="evenodd"/><path stroke="#b7b7b7" stroke-width="2.0" stroke-linejoin="round" stroke-linecap="butt" d="m104.87146 184.39473l7.244095 0l0 20.440948l-7.244095 0z" fill-rule="evenodd"/><path fill="#b7b7b7" d="m88.638695 44.623085l0 0c12.316902 0 24.129341 4.892868 32.838707 13.602238c8.709366 8.709362 13.602234 20.521801 13.602234 32.838703l0 68.86615c0 4.272461E-4 -3.5095215E-4 7.6293945E-4 -7.7819824E-4 7.6293945E-4l-92.8811 -7.6293945E-4c-4.272461E-4 0 -7.7438354E-4 -3.5095215E-4 -7.7438354E-4 -7.7819824E-4l7.7438354E-4 -68.86537c0 -25.64862 20.792316 -46.44094 46.440945 -46.44094z" fill-rule="evenodd"/><path stroke="#666666" stroke-width="2.0" stroke-linejoin="round" stroke-linecap="butt" d="m88.638695 44.623085l0 0c12.316902 0 24.129341 4.892868 32.838707 13.602238c8.709366 8.709362 13.602234 20.521801 13.602234 32.838703l0 68.86615c0 4.272461E-4 -3.5095215E-4 7.6293945E-4 -7.7819824E-4 7.6293945E-4l-92.8811 -7.6293945E-4c-4.272461E-4 0 -7.7438354E-4 -3.5095215E-4 -7.7438354E-4 -7.7819824E-4l7.7438354E-4 -68.86537c0 -25.64862 20.792316 -46.44094 46.440945 -46.44094z" fill-rule="evenodd"/><path fill="#efefef" d="m57.44901 68.58929c-2.461361 -3.444168 0.9511452 -10.085869 7.6220512 -14.834648c6.6708984 -4.7487793 14.074066 -5.8063736 16.53543 -2.3622055c2.4613647 3.444172 -0.95114136 10.085869 -7.6220474 14.834648c-6.670906 4.7487793 -14.07407 5.8063736 -16.535435 2.3622055z" fill-rule="evenodd"/><path fill="#efefef" d="m49.123016 83.36827c-1.9308205 -0.9306183 -2.339756 -4.0540543 -0.9133835 -6.9763794c1.4263725 -2.9223251 4.1479187 -4.5369186 6.078739 -3.6063004c1.9308243 0.9306259 2.3397598 4.0540543 0.9133873 6.9763794c-1.4263725 2.9223251 -4.1479187 4.5369186 -6.078743 3.6063004z" fill-rule="evenodd"/><path fill="#999999" d="m65.15475 121.131256l46.960632 0l0 38.803146l-46.960632 0z" fill-rule="evenodd"/><path fill="#999999" d="m29.95545 164.00204c0 -2.2526703 1.8261509 -4.078827 4.078821 -4.078827l109.196686 0c1.0817719 0 2.1192322 0.42973328 2.8841705 1.1946564c0.7649231 0.76493835 1.1946564 1.8023987 1.1946564 2.8841705l0 16.314789c0 2.2526703 -1.8261566 4.078827 -4.078827 4.078827l-109.196686 0c-2.2526703 0 -4.078821 -1.8261566 -4.078821 -4.078827z" fill-rule="evenodd"/><path stroke="#666666" stroke-width="2.0" stroke-linejoin="round" stroke-linecap="butt" d="m29.95545 164.00204c0 -2.2526703 1.8261509 -4.078827 4.078821 -4.078827l109.196686 0c1.0817719 0 2.1192322 0.42973328 2.8841705 1.1946564c0.7649231 0.76493835 1.1946564 1.8023987 1.1946564 2.8841705l0 16.314789c0 2.2526703 -1.8261566 4.078827 -4.078827 4.078827l-109.196686 0c-2.2526703 0 -4.078821 -1.8261566 -4.078821 -4.078827z" fill-rule="evenodd"/></g></svg>