<svg version="1.1" viewBox="0.0 0.0 100.0 100.0" fill="none" stroke="none" stroke-linecap="square" stroke-miterlimit="10" xmlns:xlink="http://www.w3.org/1999/xlink" xmlns="http://www.w3.org/2000/svg"><clipPath id="p.0"><path d="m0 0l100.0 0l0 100.0l-100.0 0l0 -100.0z" clip-rule="nonzero"/></clipPath><g clip-path="url(#p.0)"><path fill="#000000" fill-opacity="0.0" d="m0 0l100.0 0l0 100.0l-100.0 0z" fill-rule="evenodd"/><path fill="#cc0000" d="m8.434882 50.0c0 -22.95578 18.609337 -41.565117 41.565117 -41.565117c11.023754 0 21.596008 4.3791695 29.390976 12.174142c7.7949753 7.7949715 12.174141 18.367222 12.174141 29.390976c0 22.95578 -18.609337 41.565117 -41.565117 41.565117c-22.95578 0 -41.565117 -18.609337 -41.565117 -41.565117z" fill-rule="evenodd"/><path stroke="#990000" stroke-width="8.0" stroke-linejoin="round" stroke-linecap="butt" d="m8.434882 50.0c0 -22.95578 18.609337 -41.565117 41.565117 -41.565117c11.023754 0 21.596008 4.3791695 29.390976 12.174142c7.7949753 7.7949715 12.174141 18.367222 12.174141 29.390976c0 22.95578 -18.609337 41.565117 -41.565117 41.565117c-22.95578 0 -41.565117 -18.609337 -41.565117 -41.565117z" fill-rule="evenodd"/><path fill="#ff0000" d="m22.909586 40.632275c-3.213808 -3.21381 -2.1681404 -9.470093 2.3355637 -13.973799c4.503706 -4.503706 10.759989 -5.5493736 13.973799 -2.3355637c3.21381 3.21381 2.1681404 9.470091 -2.3355637 13.973795c-4.503708 4.503708 -10.759989 5.5493736 -13.973799 2.3355675z" fill-rule="evenodd"/></g></svg>