<svg version="1.1" viewBox="0.0 0.0 177.01049868766404 209.1942257217848" fill="none" stroke="none" stroke-linecap="square" stroke-miterlimit="10" xmlns:xlink="http://www.w3.org/1999/xlink" xmlns="http://www.w3.org/2000/svg"><clipPath id="p.0"><path d="m0 0l177.0105 0l0 209.19423l-177.0105 0l0 -209.19423z" clip-rule="nonzero"/></clipPath><g clip-path="url(#p.0)"><path fill="#000000" fill-opacity="0.0" d="m0 0l177.0105 0l0 209.19423l-177.0105 0z" fill-rule="evenodd"/><path fill="#ffe599" d="m169.18307 89.50866l-24.408203 14.910652l0 -29.821304zm-23.595413 -56.95262l-6.7115784 27.805614l-21.086578 -21.086567zm-56.94516 -23.587944l14.910652 24.4082l-29.821304 0zm-56.95262 23.587944l27.805614 6.7190475l-21.086567 21.086567zm-23.587944 56.95262l24.408203 -14.910652l0 29.821304zm23.587944 56.945168l6.7190475 -27.798164l21.086567 21.08657zm56.95262 23.595398l-14.910652 -24.408203l29.821304 0zm56.94516 -23.595398l-27.798157 -6.7115936l21.086578 -21.08657zm-108.89543 -56.945168c0 -28.691345 23.25893 -51.950275 51.950275 -51.950275c28.691345 0 51.95027 23.25893 51.95027 51.950275c0 28.691345 -23.258926 51.95028 -51.95027 51.95028c-28.691345 0 -51.950275 -23.258934 -51.950275 -51.95028z" fill-rule="evenodd"/><path stroke="#fff2cc" stroke-width="8.0" stroke-linejoin="round" stroke-linecap="butt" d="m169.18307 89.50866l-24.408203 14.910652l0 -29.821304zm-23.595413 -56.95262l-6.7115784 27.805614l-21.086578 -21.086567zm-56.94516 -23.587944l14.910652 24.4082l-29.821304 0zm-56.95262 23.587944l27.805614 6.7190475l-21.086567 21.086567zm-23.587944 56.95262l24.408203 -14.910652l0 29.821304zm23.587944 56.945168l6.7190475 -27.798164l21.086567 21.08657zm56.95262 23.595398l-14.910652 -24.408203l29.821304 0zm56.94516 -23.595398l-27.798157 -6.7115936l21.086578 -21.08657zm-108.89543 -56.945168c0 -28.691345 23.25893 -51.950275 51.950275 -51.950275c28.691345 0 51.95027 23.25893 51.95027 51.950275c0 28.691345 -23.258926 51.95028 -51.95027 51.95028c-28.691345 0 -51.950275 -23.258934 -51.950275 -51.95028z" fill-rule="evenodd"/><path fill="#ffe599" d="m166.42456 68.680786l-19.718567 20.717987l-7.7159576 -28.805218zm-37.52736 -48.907013l0.71151733 28.594759l-25.824036 -14.912151zm-61.108032 -8.050247l20.717987 19.718565l-28.805218 7.7159653zm-48.908943 37.520164l28.59669 -0.7043152l-14.912151 25.824032zm-8.048316 61.11523l19.718563 -20.717987l7.7159653 28.805222zm37.51823 48.90175l-0.70238495 -28.589493l25.824032 14.912155zm61.11716 8.055511l-20.717987 -19.718567l28.805222 -7.7159576zm48.89981 -37.525436l-28.587555 0.7095947l14.912155 -25.824036zm-119.91907 -26.829277c-7.4235992 -27.713745 9.024822 -56.1982 36.738575 -63.6218c27.713753 -7.4235992 56.198204 9.024818 63.621803 36.738575c7.4235992 27.713753 -9.024826 56.198204 -36.73857 63.621803c-27.713753 7.4235992 -56.198208 -9.024826 -63.621807 -36.73858z" fill-rule="evenodd"/><path stroke="#fff2cc" stroke-width="8.0" stroke-linejoin="round" stroke-linecap="butt" d="m166.42456 68.680786l-19.718567 20.717987l-7.7159576 -28.805218zm-37.52736 -48.907013l0.71151733 28.594759l-25.824036 -14.912151zm-61.108032 -8.050247l20.717987 19.718565l-28.805218 7.7159653zm-48.908943 37.520164l28.59669 -0.7043152l-14.912151 25.824032zm-8.048316 61.11523l19.718563 -20.717987l7.7159653 28.805222zm37.51823 48.90175l-0.70238495 -28.589493l25.824032 14.912155zm61.11716 8.055511l-20.717987 -19.718567l28.805222 -7.7159576zm48.89981 -37.525436l-28.587555 0.7095947l14.912155 -25.824036zm-119.91907 -26.829277c-7.4235992 -27.713745 9.024822 -56.1982 36.738575 -63.6218c27.713753 -7.4235992 56.198204 9.024818 63.621803 36.738575c7.4235992 27.713753 -9.024826 56.198204 -36.73857 63.621803c-27.713753 7.4235992 -56.198208 -9.024826 -63.621807 -36.73858z" fill-rule="evenodd"/><path fill="#ffe599" d="m166.43729 110.34619l-27.434525 8.087227l7.715973 -28.805214zm-8.055511 -61.117165l-13.677338 25.121643l-14.912155 -25.824028zm-48.90174 -37.518234l8.087227 27.43453l-28.805214 -7.7159653zm-61.115234 8.048317l25.119713 13.684538l-25.824028 14.912151zm-37.52016 48.908943l27.434528 -8.087227l-7.7159653 28.805214zm8.050246 61.10804l13.682608 -25.112518l14.912151 25.824036zm48.907013 37.52736l-8.087227 -27.43454l28.805214 7.715973zm61.109955 -8.057449l-25.114433 -13.6754l25.824028 -14.912155zm-90.45107 -83.1805c7.4235992 -27.713753 35.90805 -44.16217 63.621803 -36.73857c27.713745 7.4235992 44.16217 35.90805 36.73857 63.621803c-7.4235992 27.713753 -35.90805 44.162178 -63.621803 36.73858c-27.713749 -7.4235992 -44.16217 -35.90806 -36.73857 -63.62181z" fill-rule="evenodd"/><path stroke="#fff2cc" stroke-width="8.0" stroke-linejoin="round" stroke-linecap="butt" d="m166.43729 110.34619l-27.434525 8.087227l7.715973 -28.805214zm-8.055511 -61.117165l-13.677338 25.121643l-14.912155 -25.824028zm-48.90174 -37.518234l8.087227 27.43453l-28.805214 -7.7159653zm-61.115234 8.048317l25.119713 13.684538l-25.824028 14.912151zm-37.52016 48.908943l27.434528 -8.087227l-7.7159653 28.805214zm8.050246 61.10804l13.682608 -25.112518l14.912151 25.824036zm48.907013 37.52736l-8.087227 -27.43454l28.805214 7.715973zm61.109955 -8.057449l-25.114433 -13.6754l25.824028 -14.912155zm-90.45107 -83.1805c7.4235992 -27.713753 35.90805 -44.16217 63.621803 -36.73857c27.713745 7.4235992 44.16217 35.90805 36.73857 63.621803c-7.4235992 27.713753 -35.90805 44.162178 -63.621803 36.73858c-27.713749 -7.4235992 -44.16217 -35.90806 -36.73857 -63.62181z" fill-rule="evenodd"/><path fill="#ffe599" d="m25.96959 89.508606c0 -34.60623 28.053898 -62.66013 62.660133 -62.66013c16.6185 0 32.55635 6.601673 44.30741 18.35273c11.751053 11.751053 18.352722 27.6889 18.352722 44.3074c0 34.60624 -28.053902 62.66014 -62.660133 62.66014c-34.606236 0 -62.660133 -28.053902 -62.660133 -62.66014z" fill-rule="evenodd"/><path stroke="#fff2cc" stroke-width="8.0" stroke-linejoin="round" stroke-linecap="butt" d="m25.96959 89.508606c0 -34.60623 28.053898 -62.66013 62.660133 -62.66013c16.6185 0 32.55635 6.601673 44.30741 18.35273c11.751053 11.751053 18.352722 27.6889 18.352722 44.3074c0 34.60624 -28.053902 62.66014 -62.660133 62.66014c-34.606236 0 -62.660133 -28.053902 -62.660133 -62.66014z" fill-rule="evenodd"/><path fill="#d9d9d9" d="m65.14606 184.39465l7.244095 0l0 20.440933l-7.244095 0z" fill-rule="evenodd"/><path stroke="#b7b7b7" stroke-width="2.0" stroke-linejoin="round" stroke-linecap="butt" d="m65.14606 184.39465l7.244095 0l0 20.440933l-7.244095 0z" fill-rule="evenodd"/><path fill="#d9d9d9" d="m104.862595 184.39465l7.244095 0l0 20.440933l-7.244095 0z" fill-rule="evenodd"/><path stroke="#b7b7b7" stroke-width="2.0" stroke-linejoin="round" stroke-linecap="butt" d="m104.862595 184.39465l7.244095 0l0 20.440933l-7.244095 0z" fill-rule="evenodd"/><path fill="#ffffff" d="m169.18307 89.50866l-24.408203 14.910652l0 -29.821304zm-23.595413 -56.95262l-6.7115784 27.805614l-21.086578 -21.086567zm-56.94516 -23.587944l14.910652 24.4082l-29.821304 0zm-56.95262 23.587944l27.805614 6.7190475l-21.086567 21.086567zm-23.587944 56.95262l24.408203 -14.910652l0 29.821304zm23.587944 56.945168l6.7190475 -27.798164l21.086567 21.08657zm56.95262 23.595398l-14.910652 -24.408203l29.821304 0zm56.94516 -23.595398l-27.798157 -6.7115936l21.086578 -21.08657zm-108.89543 -56.945168c0 -28.691345 23.25893 -51.950275 51.950275 -51.950275c28.691345 0 51.95027 23.25893 51.95027 51.950275c0 28.691345 -23.258926 51.95028 -51.95027 51.95028c-28.691345 0 -51.950275 -23.258934 -51.950275 -51.95028z" fill-rule="evenodd"/><path fill="#ffffff" d="m166.42456 68.680786l-19.718567 20.717987l-7.7159576 -28.805218zm-37.52736 -48.907013l0.71151733 28.594759l-25.824036 -14.912151zm-61.108032 -8.050247l20.717987 19.718565l-28.805218 7.7159653zm-48.908943 37.520164l28.59669 -0.7043152l-14.912151 25.824032zm-8.048316 61.11523l19.718563 -20.717987l7.7159653 28.805222zm37.51823 48.90175l-0.70238495 -28.589493l25.824032 14.912155zm61.11716 8.055511l-20.717987 -19.718567l28.805222 -7.7159576zm48.89981 -37.525436l-28.587555 0.7095947l14.912155 -25.824036zm-119.91907 -26.829277c-7.4235992 -27.713745 9.024822 -56.1982 36.738575 -63.6218c27.713753 -7.4235992 56.198204 9.024818 63.621803 36.738575c7.4235992 27.713753 -9.024826 56.198204 -36.73857 63.621803c-27.713753 7.4235992 -56.198208 -9.024826 -63.621807 -36.73858z" fill-rule="evenodd"/><path fill="#ffffff" d="m166.43729 110.34619l-27.434525 8.087227l7.715973 -28.805214zm-8.055511 -61.117165l-13.677338 25.121643l-14.912155 -25.824028zm-48.90174 -37.518234l8.087227 27.43453l-28.805214 -7.7159653zm-61.115234 8.048317l25.119713 13.684538l-25.824028 14.912151zm-37.52016 48.908943l27.434528 -8.087227l-7.7159653 28.805214zm8.050246 61.10804l13.682608 -25.112518l14.912151 25.824036zm48.907013 37.52736l-8.087227 -27.43454l28.805214 7.715973zm61.109955 -8.057449l-25.114433 -13.6754l25.824028 -14.912155zm-90.45107 -83.1805c7.4235992 -27.713753 35.90805 -44.16217 63.621803 -36.73857c27.713745 7.4235992 44.16217 35.90805 36.73857 63.621803c-7.4235992 27.713753 -35.90805 44.162178 -63.621803 36.73858c-27.713749 -7.4235992 -44.16217 -35.90806 -36.73857 -63.62181z" fill-rule="evenodd"/><path fill="#ffffff" d="m25.96959 89.508606c0 -34.60623 28.053898 -62.66013 62.660133 -62.66013c16.6185 0 32.55635 6.601673 44.30741 18.35273c11.751053 11.751053 18.352722 27.6889 18.352722 44.3074c0 34.60624 -28.053902 62.66014 -62.660133 62.66014c-34.606236 0 -62.660133 -28.053902 -62.660133 -62.66014z" fill-rule="evenodd"/><path fill="#ffffff" d="m88.63245 44.622993l0 0c12.31691 0 24.129341 4.892872 32.838707 13.602238c8.709373 8.70937 13.6022415 20.521801 13.6022415 32.83871l0 68.86614c0 4.272461E-4 -3.5095215E-4 7.6293945E-4 -7.7819824E-4 7.6293945E-4l-92.88111 -7.6293945E-4c-4.272461E-4 0 -7.7438354E-4 -3.5095215E-4 -7.7438354E-4 -7.7819824E-4l7.7438354E-4 -68.865364c0 -25.648628 20.79232 -46.44095 46.44094 -46.44095z" fill-rule="evenodd"/><path stroke="#f9cb9c" stroke-width="2.0" stroke-linejoin="round" stroke-linecap="butt" d="m88.63245 44.622993l0 0c12.31691 0 24.129341 4.892872 32.838707 13.602238c8.709373 8.70937 13.6022415 20.521801 13.6022415 32.83871l0 68.86614c0 4.272461E-4 -3.5095215E-4 7.6293945E-4 -7.7819824E-4 7.6293945E-4l-92.88111 -7.6293945E-4c-4.272461E-4 0 -7.7438354E-4 -3.5095215E-4 -7.7438354E-4 -7.7819824E-4l7.7438354E-4 -68.865364c0 -25.648628 20.79232 -46.44095 46.44094 -46.44095z" fill-rule="evenodd"/><path fill="#fff2cc" d="m57.442764 68.589195c-2.461361 -3.444168 0.9511452 -10.085865 7.6220474 -14.834644c6.670906 -4.7487793 14.074074 -5.8063774 16.535439 -2.3622055c2.461357 3.444168 -0.951149 10.085865 -7.6220474 14.834644c-6.670906 4.7487793 -14.074074 5.8063736 -16.535439 2.3622055z" fill-rule="evenodd"/><path fill="#fff2cc" d="m49.116776 83.36818c-1.9308243 -0.9306183 -2.3397598 -4.0540466 -0.9133873 -6.976372c1.4263725 -2.9223328 4.1479187 -4.5369263 6.078739 -3.6063004c1.9308243 0.9306183 2.3397598 4.0540466 0.9133873 6.976372c-1.4263725 2.9223328 -4.1479187 4.5369263 -6.078739 3.6063004z" fill-rule="evenodd"/><path fill="#fff2cc" d="m65.14588 121.131165l46.960632 0l0 38.803146l-46.960632 0z" fill-rule="evenodd"/><path fill="#fff2cc" d="m29.949205 164.00195c0 -2.2526703 1.8261509 -4.078827 4.078821 -4.078827l109.196686 0c1.0817719 0 2.1192322 0.42973328 2.8841553 1.1946564c0.76493835 0.76493835 1.1946716 1.8023987 1.1946716 2.8841705l0 16.314789c0 2.2526855 -1.8261566 4.078827 -4.078827 4.078827l-109.196686 0c-2.2526703 0 -4.078821 -1.8261414 -4.078821 -4.078827z" fill-rule="evenodd"/><path stroke="#f9cb9c" stroke-width="2.0" stroke-linejoin="round" stroke-linecap="butt" d="m29.949205 164.00195c0 -2.2526703 1.8261509 -4.078827 4.078821 -4.078827l109.196686 0c1.0817719 0 2.1192322 0.42973328 2.8841553 1.1946564c0.76493835 0.76493835 1.1946716 1.8023987 1.1946716 2.8841705l0 16.314789c0 2.2526855 -1.8261566 4.078827 -4.078827 4.078827l-109.196686 0c-2.2526703 0 -4.078821 -1.8261414 -4.078821 -4.078827z" fill-rule="evenodd"/></g></svg>