<svg version="1.1" viewBox="0.0 0.0 100.0 209.75590551181102" fill="none" stroke="none" stroke-linecap="square" stroke-miterlimit="10" xmlns:xlink="http://www.w3.org/1999/xlink" xmlns="http://www.w3.org/2000/svg"><clipPath id="p.0"><path d="m0 0l100.0 0l0 209.7559l-100.0 0l0 -209.7559z" clip-rule="nonzero"/></clipPath><g clip-path="url(#p.0)"><path fill="#000000" fill-opacity="0.0" d="m0 0l100.0 0l0 209.7559l-100.0 0z" fill-rule="evenodd"/><path fill="#efefef" d="m12.614173 168.18242c0 -20.647629 16.738205 -37.385834 37.385826 -37.385834c9.915337 0 19.424568 3.938858 26.435768 10.950058c7.0112076 7.0112 10.950058 16.520432 10.950058 26.435776c0 20.647614 -16.738205 37.38582 -37.385826 37.38582c-20.647621 0 -37.385826 -16.738205 -37.385826 -37.38582z" fill-rule="evenodd"/><path stroke="#999999" stroke-width="4.0" stroke-linejoin="round" stroke-linecap="butt" d="m12.614173 168.18242c0 -20.647629 16.738205 -37.385834 37.385826 -37.385834c9.915337 0 19.424568 3.938858 26.435768 10.950058c7.0112076 7.0112 10.950058 16.520432 10.950058 26.435776c0 20.647614 -16.738205 37.38582 -37.385826 37.38582c-20.647621 0 -37.385826 -16.738205 -37.385826 -37.38582z" fill-rule="evenodd"/><path fill="#efefef" d="m26.015749 32.801838c0 -15.803173 10.794519 -28.614174 24.110235 -28.614174c6.394432 0 12.526966 3.014699 17.048515 8.3808975c4.5215454 5.3661976 7.061722 12.644325 7.061722 20.233276c0 15.803169 -10.794521 28.614174 -24.110237 28.614174c-13.315716 0 -24.110235 -12.811005 -24.110235 -28.614174z" fill-rule="evenodd"/><path stroke="#999999" stroke-width="4.0" stroke-linejoin="round" stroke-linecap="butt" d="m26.015749 32.801838c0 -15.803173 10.794519 -28.614174 24.110235 -28.614174c6.394432 0 12.526966 3.014699 17.048515 8.3808975c4.5215454 5.3661976 7.061722 12.644325 7.061722 20.233276c0 15.803169 -10.794521 28.614174 -24.110237 28.614174c-13.315716 0 -24.110235 -12.811005 -24.110235 -28.614174z" fill-rule="evenodd"/><path fill="#efefef" d="m12.614173 171.93045l13.060365 -141.13387l48.650925 0l13.060364 141.13387z" fill-rule="evenodd"/><path stroke="#999999" stroke-width="4.0" stroke-linejoin="round" stroke-linecap="butt" d="m12.614173 171.93045l13.060365 -141.13387l48.650925 0l13.060364 141.13387z" fill-rule="evenodd"/><path fill="#d9d9d9" d="m12.614173 171.93045l13.060365 -141.13387l48.650925 0l13.060364 141.13387z" fill-rule="evenodd"/><path fill="#d9d9d9" d="m26.015749 32.801838c0 -15.803173 10.794519 -28.614174 24.110235 -28.614174c6.394432 0 12.526966 3.014699 17.048515 8.3808975c4.5215454 5.3661976 7.061722 12.644325 7.061722 20.233276c0 15.803169 -10.794521 28.614174 -24.110237 28.614174c-13.315716 0 -24.110235 -12.811005 -24.110235 -28.614174z" fill-rule="evenodd"/><path fill="#d9d9d9" d="m12.614173 168.18242c0 -20.647629 16.738205 -37.385834 37.385826 -37.385834c9.915337 0 19.424568 3.938858 26.435768 10.950058c7.0112076 7.0112 10.950058 16.520432 10.950058 26.435776c0 20.647614 -16.738205 37.38582 -37.385826 37.38582c-20.647621 0 -37.385826 -16.738205 -37.385826 -37.38582z" fill-rule="evenodd"/><path fill="#999999" d="m25.779528 168.18242c0 -13.376602 10.843874 -24.220474 24.220472 -24.220474c6.423668 0 12.58424 2.5517883 17.126457 7.0940094c4.542221 4.542221 7.094017 10.702789 7.094017 17.126465c0 13.376587 -10.843876 24.220474 -24.220474 24.220474c-13.376598 0 -24.220472 -10.843887 -24.220472 -24.220474z" fill-rule="evenodd"/><path stroke="#666666" stroke-width="4.0" stroke-linejoin="round" stroke-linecap="butt" d="m25.779528 168.18242c0 -13.376602 10.843874 -24.220474 24.220472 -24.220474c6.423668 0 12.58424 2.5517883 17.126457 7.0940094c4.542221 4.542221 7.094017 10.702789 7.094017 17.126465c0 13.376587 -10.843876 24.220474 -24.220474 24.220474c-13.376598 0 -24.220472 -10.843887 -24.220472 -24.220474z" fill-rule="evenodd"/></g></svg>