<?xml version="1.0" encoding="UTF-8" standalone="no"?>
<svg
   version="1.1"
   viewBox="0 0 100 340"
   fill="none"
   stroke="none"
   stroke-linecap="square"
   stroke-miterlimit="10"
   id="svg13"
   sodipodi:docname="pataServo.svg"
   width="100"
   height="340"
   inkscape:version="1.4.4 (dcaf3e7d9e, 2026-05-05)"
   xmlns:inkscape="http://www.inkscape.org/namespaces/inkscape"
   xmlns:sodipodi="http://sodipodi.sourceforge.net/DTD/sodipodi-0.dtd"
   xmlns="http://www.w3.org/2000/svg"
   xmlns:svg="http://www.w3.org/2000/svg">
  <defs
     id="defs13" />
  <sodipodi:namedview
     id="namedview13"
     pagecolor="#ffffff"
     bordercolor="#000000"
     borderopacity="0.25"
     inkscape:showpageshadow="2"
     inkscape:pageopacity="0.0"
     inkscape:pagecheckerboard="0"
     inkscape:deskcolor="#d1d1d1"
     inkscape:zoom="2.5791884"
     inkscape:cx="49.821874"
     inkscape:cy="197.93048"
     inkscape:window-width="1862"
     inkscape:window-height="1011"
     inkscape:window-x="58"
     inkscape:window-y="32"
     inkscape:window-maximized="1"
     inkscape:current-layer="svg13" />
  <clipPath
     id="p.0">
    <path
       d="M 0,0 H 100 V 209.7559 H 0 Z"
       clip-rule="nonzero"
       id="path1" />
  </clipPath>
  <g
     clip-path="url(#p.0)"
     id="g13">
    <path
       fill="#000000"
       fill-opacity="0"
       d="M 0,0 H 100 V 209.7559 H 0 Z"
       fill-rule="evenodd"
       id="path2" />
    <path
       fill="#efefef"
       d="m 12.614173,168.18242 c 0,-20.64763 16.738205,-37.38583 37.385826,-37.38583 9.915337,0 19.424568,3.93885 26.435768,10.95005 7.011208,7.0112 10.950058,16.52044 10.950058,26.43578 0,20.64761 -16.738205,37.38582 -37.385826,37.38582 -20.647621,0 -37.385826,-16.73821 -37.385826,-37.38582 z"
       fill-rule="evenodd"
       id="path3" />
    <path
       stroke="#999999"
       stroke-width="4"
       stroke-linejoin="round"
       stroke-linecap="butt"
       d="m 12.614173,168.18242 c 0,-20.64763 16.738205,-37.38583 37.385826,-37.38583 9.915337,0 19.424568,3.93885 26.435768,10.95005 7.011208,7.0112 10.950058,16.52044 10.950058,26.43578 0,20.64761 -16.738205,37.38582 -37.385826,37.38582 -20.647621,0 -37.385826,-16.73821 -37.385826,-37.38582 z"
       fill-rule="evenodd"
       id="path4" />
    <path
       fill="#efefef"
       d="m 26.015749,32.801838 c 0,-15.803173 10.794519,-28.614174 24.110235,-28.614174 6.394432,0 12.526966,3.014699 17.048515,8.380897 4.521545,5.366198 7.061722,12.644325 7.061722,20.233276 0,15.80317 -10.794521,28.614174 -24.110237,28.614174 -13.315716,0 -24.110235,-12.811005 -24.110235,-28.614173 z"
       fill-rule="evenodd"
       id="path5" />
    <path
       stroke="#999999"
       stroke-width="4"
       stroke-linejoin="round"
       stroke-linecap="butt"
       d="m 26.015749,32.801838 c 0,-15.803173 10.794519,-28.614174 24.110235,-28.614174 6.394432,0 12.526966,3.014699 17.048515,8.380897 4.521545,5.366198 7.061722,12.644325 7.061722,20.233276 0,15.80317 -10.794521,28.614174 -24.110237,28.614174 -13.315716,0 -24.110235,-12.811005 -24.110235,-28.614173 z"
       fill-rule="evenodd"
       id="path6" />
    <path
       fill="#efefef"
       d="M 12.614173,171.93045 25.674538,30.79658 h 48.650925 l 13.060364,141.13387 z"
       fill-rule="evenodd"
       id="path7" />
    <path
       stroke="#999999"
       stroke-width="4"
       stroke-linejoin="round"
       stroke-linecap="butt"
       d="M 12.614173,171.93045 25.674538,30.79658 h 48.650925 l 13.060364,141.13387 z"
       fill-rule="evenodd"
       id="path8" />
    <path
       fill="#d9d9d9"
       d="M 12.614173,171.93045 25.674538,30.79658 h 48.650925 l 13.060364,141.13387 z"
       fill-rule="evenodd"
       id="path9" />
    <path
       fill="#d9d9d9"
       d="m 26.015749,32.801838 c 0,-15.803173 10.794519,-28.614174 24.110235,-28.614174 6.394432,0 12.526966,3.014699 17.048515,8.380897 4.521545,5.366198 7.061722,12.644325 7.061722,20.233276 0,15.80317 -10.794521,28.614174 -24.110237,28.614174 -13.315716,0 -24.110235,-12.811005 -24.110235,-28.614173 z"
       fill-rule="evenodd"
       id="path10" />
    <path
       fill="#d9d9d9"
       d="m 12.614173,168.18242 c 0,-20.64763 16.738205,-37.38583 37.385826,-37.38583 9.915337,0 19.424568,3.93885 26.435768,10.95005 7.011208,7.0112 10.950058,16.52044 10.950058,26.43578 0,20.64761 -16.738205,37.38582 -37.385826,37.38582 -20.647621,0 -37.385826,-16.73821 -37.385826,-37.38582 z"
       fill-rule="evenodd"
       id="path11" />
    <path
       fill="#999999"
       d="m 25.779528,168.18242 c 0,-13.3766 10.843874,-24.22047 24.220472,-24.22047 6.423668,0 12.58424,2.55178 17.126457,7.09401 4.542221,4.54222 7.094017,10.70278 7.094017,17.12646 0,13.37659 -10.843876,24.22047 -24.220474,24.22047 -13.376598,0 -24.220472,-10.84388 -24.220472,-24.22047 z"
       fill-rule="evenodd"
       id="path12" />
    <path
       stroke="#666666"
       stroke-width="4"
       stroke-linejoin="round"
       stroke-linecap="butt"
       d="m 25.779528,168.18242 c 0,-13.3766 10.843874,-24.22047 24.220472,-24.22047 6.423668,0 12.58424,2.55178 17.126457,7.09401 4.542221,4.54222 7.094017,10.70278 7.094017,17.12646 0,13.37659 -10.843876,24.22047 -24.220474,24.22047 -13.376598,0 -24.220472,-10.84388 -24.220472,-24.22047 z"
       fill-rule="evenodd"
       id="path13" />
  </g>
</svg>
