<svg version="1.1" viewBox="0.0 0.0 296.81627296587925 134.39370078740157" fill="none" stroke="none" stroke-linecap="square" stroke-miterlimit="10" xmlns:xlink="http://www.w3.org/1999/xlink" xmlns="http://www.w3.org/2000/svg"><clipPath id="p.0"><path d="m0 0l296.81628 0l0 134.3937l-296.81628 0l0 -134.3937z" clip-rule="nonzero"/></clipPath><g clip-path="url(#p.0)"><path fill="#000000" fill-opacity="0.0" d="m0 0l296.81628 0l0 134.3937l-296.81628 0z" fill-rule="evenodd"/><path fill="#000000" fill-opacity="0.0" d="m3.5839896 11.407122c0 -4.442819 3.6016164 -8.0444355 8.0444355 -8.0444355l273.54892 0c2.1335144 0 4.179657 0.8475361 5.6882935 2.3561606c1.508606 1.5086241 2.3561401 3.5547576 2.3561401 5.688275l0 110.33633c0 4.4428177 -3.601593 8.044441 -8.044434 8.044441l-273.54892 0c-4.4428186 0 -8.0444355 -3.6016235 -8.0444355 -8.044441z" fill-rule="evenodd"/><path stroke="#073763" stroke-width="4.0" stroke-linejoin="round" stroke-linecap="butt" d="m3.5839896 11.407122c0 -4.442819 3.6016164 -8.0444355 8.0444355 -8.0444355l273.54892 0c2.1335144 0 4.179657 0.8475361 5.6882935 2.3561606c1.508606 1.5086241 2.3561401 3.5547576 2.3561401 5.688275l0 110.33633c0 4.4428177 -3.601593 8.044441 -8.044434 8.044441l-273.54892 0c-4.4428186 0 -8.0444355 -3.6016235 -8.0444355 -8.044441z" fill-rule="evenodd"/><path fill="#6d9eeb" d="m3.2086613 60.02148c0 -13.88105 6.4442797 -25.133862 14.393701 -25.133862c7.949423 0 14.393702 11.252811 14.393702 25.133862c-8.849228 -9.34745 -19.938173 -9.34745 -28.787401 0z" fill-rule="evenodd"/><path fill="#6d9eeb" d="m31.996063 71.89812c0 13.88105 -6.4442787 25.133858 -14.393702 25.133858c-7.949421 0 -14.393701 -11.252808 -14.393701 -25.133858c8.849229 9.34745 19.938173 9.34745 28.787401 0z" fill-rule="evenodd"/><path fill="#6d9eeb" d="m264.82022 60.639587c0 -13.881046 6.444275 -25.133858 14.393677 -25.133858c7.9494324 0 14.393707 11.252811 14.393707 25.133858c-8.849213 -9.347446 -19.938171 -9.347446 -28.787384 0z" fill-rule="evenodd"/><path fill="#6d9eeb" d="m293.6076 72.51623c0 13.88105 -6.444275 25.133858 -14.393707 25.133858c-7.949402 0 -14.393677 -11.252808 -14.393677 -25.133858c8.849213 9.34745 19.938171 9.34745 28.787384 0z" fill-rule="evenodd"/><path fill="#6d9eeb" d="m284.9329 129.79314l-273.06003 0c-2.198348 0 -4.306657 -0.873291 -5.8611236 -2.4277573c-1.5544662 -1.5544739 -2.4277563 -3.6627808 -2.4277563 -5.8611298l0 -39.9758c0 -0.8105316 0.6570668 -1.467598 1.4675994 -1.467598l286.7026 0c0.8105469 0 1.4675903 0.65706635 1.4675903 1.467598l0 39.9758c0 4.5778275 -3.711029 8.288887 -8.288879 8.288887z" fill-rule="evenodd"/><path fill="#6d9eeb" d="m11.8728695 3.3626862l273.06003 0c2.1983643 0 4.306671 0.87329006 5.861145 2.4277568c1.5544434 1.5544662 2.4277344 3.6627755 2.4277344 5.8611226l0 39.975803c0 0.81053543 -0.65704346 1.4676018 -1.4675903 1.4676018l-286.7026 0c-0.81053257 0 -1.4675994 -0.65706635 -1.4675994 -1.4676018l0 -39.975803c0 -4.5778217 3.7110577 -8.288879 8.288879 -8.288879z" fill-rule="evenodd"/><path fill="#3c78d8" d="m32.31365 11.407122c0 -4.442819 3.601616 -8.0444355 8.044434 -8.0444355l216.10011 0c2.1335144 0 4.179657 0.8475361 5.688263 2.3561606c1.5086365 1.5086241 2.3561707 3.5547576 2.3561707 5.688275l0 110.33633c0 4.4428177 -3.6016235 8.044441 -8.044434 8.044441l-216.10011 0c-4.4428177 0 -8.044434 -3.6016235 -8.044434 -8.044441z" fill-rule="evenodd"/><path stroke="#073763" stroke-width="4.0" stroke-linejoin="round" stroke-linecap="butt" d="m32.31365 11.407122c0 -4.442819 3.601616 -8.0444355 8.044434 -8.0444355l216.10011 0c2.1335144 0 4.179657 0.8475361 5.688263 2.3561606c1.5086365 1.5086241 2.3561707 3.5547576 2.3561707 5.688275l0 110.33633c0 4.4428177 -3.6016235 8.044441 -8.044434 8.044441l-216.10011 0c-4.4428177 0 -8.044434 -3.6016235 -8.044434 -8.044441z" fill-rule="evenodd"/><path fill="#6d9eeb" d="m100.22966 66.57791c0 -30.98883 25.121407 -56.110237 56.11023 -56.110237c14.881363 0 29.153229 5.9115973 39.675934 16.434307c10.522705 10.522709 16.43431 24.794567 16.43431 39.67593c0 30.988823 -25.121414 56.110237 -56.110245 56.110237c-30.988823 0 -56.11023 -25.121414 -56.11023 -56.110237z" fill-rule="evenodd"/><path fill="#3c78d8" d="m32.31365 66.57529c0 -35.233162 28.562119 -63.795277 63.795277 -63.795277c16.919556 0 33.14614 6.7212687 45.11007 18.685204c11.9639435 11.963934 18.685211 28.190512 18.685211 45.110077c0 35.233154 -28.562119 63.795273 -63.79528 63.795273c-35.23316 0 -63.795277 -28.562119 -63.795277 -63.795273z" fill-rule="evenodd"/><path stroke="#073763" stroke-width="4.0" stroke-linejoin="round" stroke-linecap="butt" d="m32.31365 66.57529c0 -35.233162 28.562119 -63.795277 63.795277 -63.795277c16.919556 0 33.14614 6.7212687 45.11007 18.685204c11.9639435 11.963934 18.685211 28.190512 18.685211 45.110077c0 35.233154 -28.562119 63.795273 -63.79528 63.795273c-35.23316 0 -63.795277 -28.562119 -63.795277 -63.795273z" fill-rule="evenodd"/><path fill="#3c78d8" d="m133.8517 66.573975c0 -12.419888 10.068314 -22.48819 22.48819 -22.48819c5.9642487 0 11.684204 2.3692818 15.90155 6.5866356c4.2173615 4.217354 6.5866394 9.937313 6.5866394 15.901554c0 12.419884 -10.068298 22.48819 -22.48819 22.48819c-12.419876 0 -22.48819 -10.068306 -22.48819 -22.48819z" fill-rule="evenodd"/><path stroke="#073763" stroke-width="4.0" stroke-linejoin="round" stroke-linecap="butt" d="m133.8517 66.573975c0 -12.419888 10.068314 -22.48819 22.48819 -22.48819c5.9642487 0 11.684204 2.3692818 15.90155 6.5866356c4.2173615 4.217354 6.5866394 9.937313 6.5866394 15.901554c0 12.419884 -10.068298 22.48819 -22.48819 22.48819c-12.419876 0 -22.48819 -10.068306 -22.48819 -22.48819z" fill-rule="evenodd"/><path fill="#3c78d8" d="m32.896324 66.57529c0 -34.911354 28.301247 -63.2126 63.2126 -63.2126c16.765022 0 32.84339 6.6598797 44.69805 18.514542c11.85466 11.85466 18.514542 27.933033 18.514542 44.69806c0 34.911354 -28.301239 63.2126 -63.212593 63.2126c-34.911354 0 -63.2126 -28.301247 -63.2126 -63.2126z" fill-rule="evenodd"/><path fill="#000000" fill-opacity="0.0" d="m3.5839896 66.57791c0 -7.444973 6.0353427 -13.480316 13.480314 -13.480316c3.575201 0 7.003973 1.4202423 9.532022 3.9482918c2.5280495 2.5280495 3.9482918 5.9568214 3.9482918 9.532024c0 7.444969 -6.0353413 13.480316 -13.480314 13.480316c-7.444972 0 -13.480314 -6.035347 -13.480314 -13.480316z" fill-rule="evenodd"/><path stroke="#073763" stroke-width="4.0" stroke-linejoin="round" stroke-linecap="butt" d="m3.5839896 66.57791c0 -7.444973 6.0353427 -13.480316 13.480314 -13.480316c3.575201 0 7.003973 1.4202423 9.532022 3.9482918c2.5280495 2.5280495 3.9482918 5.9568214 3.9482918 9.532024c0 7.444969 -6.0353413 13.480316 -13.480314 13.480316c-7.444972 0 -13.480314 -6.035347 -13.480314 -13.480316z" fill-rule="evenodd"/><path fill="#000000" fill-opacity="0.0" d="m265.19553 67.19602c0 -7.444977 6.0353394 -13.480316 13.480316 -13.480316c3.5752258 0 7.003998 1.4202423 9.532043 3.9482918c2.5280457 2.5280495 3.9482727 5.9568214 3.9482727 9.532024c0 7.444969 -6.0353394 13.480316 -13.480316 13.480316c-7.444977 0 -13.480316 -6.035347 -13.480316 -13.480316z" fill-rule="evenodd"/><path stroke="#073763" stroke-width="4.0" stroke-linejoin="round" stroke-linecap="butt" d="m265.19553 67.19602c0 -7.444977 6.0353394 -13.480316 13.480316 -13.480316c3.5752258 0 7.003998 1.4202423 9.532043 3.9482918c2.5280457 2.5280495 3.9482727 5.9568214 3.9482727 9.532024c0 7.444969 -6.0353394 13.480316 -13.480316 13.480316c-7.444977 0 -13.480316 -6.035347 -13.480316 -13.480316z" fill-rule="evenodd"/><path fill="#6d9eeb" d="m154.78871 67.197334l-29.187073 6.139023l0 -12.278049zm-17.190231 -41.492363l-16.294357 24.981562l-8.681778 -8.681774zm-41.48693 -17.184803l6.139023 29.187075l-12.278046 0zm-41.492363 17.184803l24.98156 16.299788l-8.68177 8.681774zm-17.184803 41.492363l29.187077 -6.1390266l0 12.278049zm17.184803 41.486923l16.29979 -24.976128l8.68177 8.681778zm41.492363 17.190239l-6.139023 -29.187073l12.278046 0zm41.48693 -17.190239l-24.976135 -16.29435l8.681778 -8.681778zm-62.87593 -41.486923c0 -11.81282 9.5761795 -21.389004 21.389 -21.389004c11.81282 0 21.389 9.576183 21.389 21.389004c0 11.812813 -9.5761795 21.389 -21.389 21.389c-11.81282 0 -21.389 -9.576187 -21.389 -21.389z" fill-rule="evenodd"/><path fill="#6d9eeb" d="m152.79376 82.37215l-29.780548 -1.6215744l3.1766052 -11.859558zm-5.8693085 -44.525604l-22.202255 19.914352l-6.1396866 -10.632027zm-35.626762 -27.332664l-1.6215744 29.78054l-11.85955 -3.1766052zm-44.5242 5.8640547l19.912949 22.207506l-10.632027 6.1396866zm-27.334064 35.63201l29.780544 1.6215744l-3.1766129 11.85955zm5.8654594 44.51895l22.2061 -19.907707l6.1396866 10.632034zm35.6306 27.339317l1.6215744 -29.780548l11.859558 3.1766129zm44.520355 -5.8707123l-19.909103 -22.200851l10.632027 -6.1396866zm-49.999214 -56.34027c3.056244 -11.410179 14.7836 -18.182388 26.193779 -15.126144c11.410179 3.05624 18.182388 14.783596 15.126144 26.193779c-3.056244 11.410179 -14.783592 18.18238 -26.193779 15.126144c-11.410179 -3.056244 -18.18238 -14.7836 -15.126144 -26.193779z" fill-rule="evenodd"/><path fill="#6d9eeb" d="m150.31596 89.67086l-29.31356 -5.5070953l4.702301 -11.342201zm0.010940552 -44.913357l-24.619919 16.836952l-4.6950607 -11.345024zm-31.743225 -31.763807l-5.5070953 29.313555l-11.342201 -4.702301zm-44.911285 -0.015971184l16.834877 24.624947l-11.345024 4.695057zm-31.765884 31.748253l29.313553 5.5070953l-4.702301 11.342201zm-0.013889313 44.90626l24.622868 -16.829857l4.695053 11.345024zm31.746174 31.770905l5.5070953 -29.313553l11.342201 4.702301zm44.90834 0.008872986l-16.831932 -24.617851l11.345024 -4.695053zm-42.194603 -62.40525c4.524124 -10.912434 17.037926 -16.091179 27.950356 -11.567051c10.912437 4.524124 16.091179 17.03793 11.567055 27.95036c-4.524124 10.91243 -17.037926 16.091179 -27.950363 11.567055c-10.91243 -4.524132 -16.091179 -17.037933 -11.567047 -27.950363z" fill-rule="evenodd"/><path fill="#6d9eeb" d="m154.29207 74.89886l-29.742088 2.2557907l1.6113663 -12.1726zm-11.597137 -43.392056l-19.432999 22.628544l-7.467819 -9.746609zm-38.875305 -22.481956l2.2557907 29.742092l-12.1726 -1.6113701zm-43.391342 11.59176l22.62783 19.438377l-9.746613 7.467819zm-22.48267 38.88068l29.742092 -2.2557907l-1.6113739 12.1726zm11.592472 43.385963l19.437668 -22.622444l7.467819 9.746605zm38.879967 22.488052l-2.2557907 -29.742088l12.1726 1.6113663zm43.38668 -11.597855l-22.623161 -19.432281l9.746605 -7.467819zm-56.891197 -49.38246c1.5503159 -11.711369 12.301033 -19.948528 24.012398 -18.398216c11.711365 1.5503159 19.948524 12.301029 18.398216 24.012398c-1.5503159 11.711365 -12.301033 19.948524 -24.012398 18.398216c-11.711365 -1.5503159 -19.948532 -12.301033 -18.398216 -24.012398z" fill-rule="evenodd"/><path fill="#6d9eeb" d="m154.29225 59.506004l-28.13237 9.908974l-1.608078 -12.172596zm-22.476929 -38.884583l-12.88253 26.90111l-9.744286 -7.470146zm-43.38134 -11.603608l9.908974 28.13237l-12.1726 1.608078zm-38.885296 22.471535l26.901821 12.887928l-7.470146 9.744278zm-11.602894 43.386734l28.13237 -9.908974l1.6080704 12.1726zm22.470821 38.879906l12.888638 -26.896431l9.744278 7.470146zm43.387447 11.608284l-9.908981 -28.13237l12.1726 -1.608078zm38.879196 -22.476212l-26.89573 -12.883247l7.470154 -9.744278zm-67.76955 -32.895668c-1.547142 -11.711365 6.692589 -22.45951 18.403961 -24.006653c11.711365 -1.5471458 22.45951 6.692585 24.006653 18.403954c1.547142 11.711365 -6.692589 22.45951 -18.403954 24.006653c-11.711365 1.547142 -22.45951 -6.692589 -24.00666 -18.403954z" fill-rule="evenodd"/><path fill="#6d9eeb" d="m146.93922 96.53543l-28.34774 -9.276672l6.139023 -10.633728zm5.858124 -44.530663l-26.602928 13.488762l-3.1781921 -11.85997zm-27.33844 -35.626816l-9.276672 28.347744l-10.633728 -6.139023zm-44.527946 -5.862831l13.486046 26.60764l-11.85997 3.1781921zm-35.62953 27.343147l28.347748 9.276672l-6.1390305 10.633728zm-5.860115 44.523247l26.604927 -13.4813385l3.1781921 11.859962zm27.340431 35.63423l9.276672 -28.34774l10.633728 6.139023zm44.525963 5.8554077l-13.484055 -26.600212l11.859962 -3.1781921zm-33.711884 -67.368805c5.90641 -10.230801 18.988205 -13.736412 29.219002 -7.8300056c10.230804 5.90641 13.73642 18.988209 7.8300095 29.219006c-5.90641 10.230804 -18.988205 13.736412 -29.21901 7.830002c-10.230797 -5.9064026 -13.736412 -18.988197 -7.830002 -29.219002z" fill-rule="evenodd"/><path fill="#434343" d="m152.78084 66.57529c0 -1.9656143 1.5934448 -3.5590591 3.5590515 -3.5590591c0.94392395 0 1.8491821 0.3749733 2.516632 1.0424271c0.6674652 0.66744995 1.0424347 1.5727081 1.0424347 2.516632c0 1.9656067 -1.5934448 3.5590515 -3.5590668 3.5590515c-1.9656067 0 -3.5590515 -1.5934448 -3.5590515 -3.5590515z" fill-rule="evenodd"/><path fill="#efefef" d="m65.65223 66.57529c0 -16.82077 13.635925 -30.456696 30.456696 -30.456696c8.077614 0 15.824394 3.2088203 21.536133 8.920559c5.7117386 5.7117386 8.920563 13.458519 8.920563 21.536137c0 16.820763 -13.635933 30.456688 -30.456696 30.456688c-16.82077 0 -30.456696 -13.635925 -30.456696 -30.456688z" fill-rule="evenodd"/><path stroke="#d9d9d9" stroke-width="4.0" stroke-linejoin="round" stroke-linecap="butt" d="m65.65223 66.57529c0 -16.82077 13.635925 -30.456696 30.456696 -30.456696c8.077614 0 15.824394 3.2088203 21.536133 8.920559c5.7117386 5.7117386 8.920563 13.458519 8.920563 21.536137c0 16.820763 -13.635933 30.456688 -30.456696 30.456688c-16.82077 0 -30.456696 -13.635925 -30.456696 -30.456688z" fill-rule="evenodd"/><path fill="#0b5394" d="m86.33202 66.57791c0 -5.401085 4.378441 -9.77953 9.779526 -9.77953c2.593689 0 5.081154 1.0303383 6.915169 2.864357c1.8340149 1.8340187 2.864357 4.32148 2.864357 6.9151726c0 5.401085 -4.378441 9.779526 -9.779526 9.779526c-5.401085 0 -9.779526 -4.378441 -9.779526 -9.779526z" fill-rule="evenodd"/><path stroke="#434343" stroke-width="4.0" stroke-linejoin="round" stroke-linecap="butt" d="m86.33202 66.57791c0 -5.401085 4.378441 -9.77953 9.779526 -9.77953c2.593689 0 5.081154 1.0303383 6.915169 2.864357c1.8340149 1.8340187 2.864357 4.32148 2.864357 6.9151726c0 5.401085 -4.378441 9.779526 -9.779526 9.779526c-5.401085 0 -9.779526 -4.378441 -9.779526 -9.779526z" fill-rule="evenodd"/></g></svg>