<svg version="1.1" viewBox="0.0 0.0 319.54068241469815 100.0" fill="none" stroke="none" stroke-linecap="square" stroke-miterlimit="10" xmlns:xlink="http://www.w3.org/1999/xlink" xmlns="http://www.w3.org/2000/svg"><clipPath id="p.0"><path d="m0 0l319.54068 0l0 100.0l-319.54068 0l0 -100.0z" clip-rule="nonzero"/></clipPath><g clip-path="url(#p.0)"><path fill="#000000" fill-opacity="0.0" d="m0 0l319.54068 0l0 100.0l-319.54068 0z" fill-rule="evenodd"/><path fill="#0b5394" d="m2.567587 5.873357c0 -1.4799466 1.1997337 -2.6796803 2.6796803 -2.6796803l309.04617 0c0.71069336 0 1.392273 0.28232265 1.8948059 0.78486013c0.50253296 0.5025377 0.7848511 1.184125 0.7848511 1.8948202l0 10.7184c0 1.4799461 -1.199707 2.6796799 -2.679657 2.6796799l-309.04617 0c-1.4799466 0 -2.6796803 -1.1997337 -2.6796803 -2.6796799z" fill-rule="evenodd"/><path stroke="#20124d" stroke-width="2.0" stroke-linejoin="round" stroke-linecap="butt" d="m2.567587 5.873357c0 -1.4799466 1.1997337 -2.6796803 2.6796803 -2.6796803l309.04617 0c0.71069336 0 1.392273 0.28232265 1.8948059 0.78486013c0.50253296 0.5025377 0.7848511 1.184125 0.7848511 1.8948202l0 10.7184c0 1.4799461 -1.199707 2.6796799 -2.679657 2.6796799l-309.04617 0c-1.4799466 0 -2.6796803 -1.1997337 -2.6796803 -2.6796799z" fill-rule="evenodd"/><path fill="#cccccc" d="m21.004387 19.271437l99.18853 0c2.2125244E-4 0 4.348755E-4 8.773804E-5 5.874634E-4 2.4223328E-4c1.5258789E-4 1.5449524E-4 2.4414062E-4 3.6621094E-4 2.4414062E-4 5.8555603E-4l-8.31604E-4 62.673645c0 3.7501068 -3.040062 6.790169 -6.790169 6.790169l-85.60819 0c-3.7501068 0 -6.790169 -3.040062 -6.790169 -6.790169l0 -62.67447c0 -4.5585632E-4 3.7002563E-4 -8.2588196E-4 8.2588196E-4 -8.2588196E-4z" fill-rule="evenodd"/><path stroke="#999999" stroke-width="2.0" stroke-linejoin="round" stroke-linecap="butt" d="m21.004387 19.271437l99.18853 0c2.2125244E-4 0 4.348755E-4 8.773804E-5 5.874634E-4 2.4223328E-4c1.5258789E-4 1.5449524E-4 2.4414062E-4 3.6621094E-4 2.4414062E-4 5.8555603E-4l-8.31604E-4 62.673645c0 3.7501068 -3.040062 6.790169 -6.790169 6.790169l-85.60819 0c-3.7501068 0 -6.790169 -3.040062 -6.790169 -6.790169l0 -62.67447c0 -4.5585632E-4 3.7002563E-4 -8.2588196E-4 8.2588196E-4 -8.2588196E-4z" fill-rule="evenodd"/><path fill="#434343" d="m30.51313 83.80628l80.17104 0c0.6545334 0 1.2822571 0.2600174 1.7450867 0.72283936c0.46282196 0.46282196 0.7228317 1.0905533 0.7228317 1.745079l0 2.4679184c0 3.9672852E-4 -3.1280518E-4 7.095337E-4 -7.095337E-4 7.095337E-4l-85.10617 -7.095337E-4c-3.9100647E-4 0 -7.095337E-4 -3.1280518E-4 -7.095337E-4 -7.095337E-4l7.095337E-4 -2.4672089c0 -1.3629913 1.1049252 -2.4679184 2.4679184 -2.4679184z" fill-rule="evenodd"/><path stroke="#999999" stroke-width="2.0" stroke-linejoin="round" stroke-linecap="butt" d="m30.51313 83.80628l80.17104 0c0.6545334 0 1.2822571 0.2600174 1.7450867 0.72283936c0.46282196 0.46282196 0.7228317 1.0905533 0.7228317 1.745079l0 2.4679184c0 3.9672852E-4 -3.1280518E-4 7.095337E-4 -7.095337E-4 7.095337E-4l-85.10617 -7.095337E-4c-3.9100647E-4 0 -7.095337E-4 -3.1280518E-4 -7.095337E-4 -7.095337E-4l7.095337E-4 -2.4672089c0 -1.3629913 1.1049252 -2.4679184 2.4679184 -2.4679184z" fill-rule="evenodd"/><path fill="#efefef" d="m30.222786 19.271437l8.34737 0c1.9073486E-5 0 3.8146973E-5 7.6293945E-6 4.9591064E-5 2.0980835E-5c1.5258789E-5 1.335144E-5 1.9073486E-5 3.0517578E-5 1.9073486E-5 4.9591064E-5l-6.866455E-5 56.145065c0 2.3050613 -1.8686218 4.173683 -4.173683 4.173683l0 0c-2.3050652 0 -4.173687 -1.8686218 -4.173687 -4.173683l0 -56.145134c0 -3.8146973E-5 3.2424927E-5 -6.866455E-5 7.05719E-5 -6.866455E-5z" fill-rule="evenodd"/><path fill="#cccccc" d="m128.8397 19.271437l61.843124 0c1.373291E-4 0 2.746582E-4 5.531311E-5 3.6621094E-4 1.5068054E-4c9.1552734E-5 9.727478E-5 1.5258789E-4 2.2888184E-4 1.5258789E-4 3.643036E-4l-5.187988E-4 18.598806c0 1.1128845 -0.9021759 2.0150528 -2.0150604 2.0150528l-57.813004 0c-1.1128845 0 -2.0150604 -0.9021683 -2.0150604 -2.0150528l0 -18.599321c0 -2.8419495E-4 2.2888184E-4 -5.1498413E-4 5.187988E-4 -5.1498413E-4z" fill-rule="evenodd"/><path stroke="#999999" stroke-width="2.0" stroke-linejoin="round" stroke-linecap="butt" d="m128.8397 19.271437l61.843124 0c1.373291E-4 0 2.746582E-4 5.531311E-5 3.6621094E-4 1.5068054E-4c9.1552734E-5 9.727478E-5 1.5258789E-4 2.2888184E-4 1.5258789E-4 3.643036E-4l-5.187988E-4 18.598806c0 1.1128845 -0.9021759 2.0150528 -2.0150604 2.0150528l-57.813004 0c-1.1128845 0 -2.0150604 -0.9021683 -2.0150604 -2.0150528l0 -18.599321c0 -2.8419495E-4 2.2888184E-4 -5.1498413E-4 5.187988E-4 -5.1498413E-4z" fill-rule="evenodd"/><path fill="#efefef" d="m138.0581 19.670658l8.347366 0c1.5258789E-5 0 4.5776367E-5 7.6293945E-6 4.5776367E-5 2.0980835E-5c1.5258789E-5 1.335144E-5 3.0517578E-5 3.0517578E-5 3.0517578E-5 4.9591064E-5l-7.6293945E-5 14.84374c0 1.282814 -1.039917 2.3227386 -2.3227386 2.3227386l-3.701889 0c-1.2828064 0 -2.3227386 -1.0399246 -2.3227386 -2.3227386l0 -14.843811c0 -3.8146973E-5 3.0517578E-5 -6.866455E-5 7.6293945E-5 -6.866455E-5z" fill-rule="evenodd"/><path fill="#000000" fill-opacity="0.0" d="m131.5889 39.88581l56.362885 0" fill-rule="evenodd"/><path stroke="#434343" stroke-width="2.0" stroke-linejoin="round" stroke-linecap="butt" d="m131.5889 39.88581l56.362885 0" fill-rule="evenodd"/><path fill="#cccccc" d="m199.34776 19.268414l99.18852 0c2.4414062E-4 0 4.272461E-4 8.583069E-5 5.79834E-4 2.4032593E-4c1.8310547E-4 1.5640259E-4 2.4414062E-4 3.6621094E-4 2.4414062E-4 5.8555603E-4l-8.239746E-4 62.673637c0 3.7501068 -3.040039 6.790169 -6.790161 6.790169l-85.6082 0c-3.7500916 0 -6.790161 -3.040062 -6.790161 -6.790169l0 -62.674465c0 -4.5776367E-4 3.6621094E-4 -8.277893E-4 8.239746E-4 -8.277893E-4z" fill-rule="evenodd"/><path stroke="#999999" stroke-width="2.0" stroke-linejoin="round" stroke-linecap="butt" d="m199.34776 19.268414l99.18852 0c2.4414062E-4 0 4.272461E-4 8.583069E-5 5.79834E-4 2.4032593E-4c1.8310547E-4 1.5640259E-4 2.4414062E-4 3.6621094E-4 2.4414062E-4 5.8555603E-4l-8.239746E-4 62.673637c0 3.7501068 -3.040039 6.790169 -6.790161 6.790169l-85.6082 0c-3.7500916 0 -6.790161 -3.040062 -6.790161 -6.790169l0 -62.674465c0 -4.5776367E-4 3.6621094E-4 -8.277893E-4 8.239746E-4 -8.277893E-4z" fill-rule="evenodd"/><path fill="#434343" d="m208.8565 83.80326l80.17105 0c0.654541 0 1.2822571 0.26000977 1.7450867 0.72283936c0.46279907 0.46282196 0.72283936 1.0905457 0.72283936 1.745079l0 2.4679184c0 3.8909912E-4 -3.3569336E-4 7.095337E-4 -7.324219E-4 7.095337E-4l-85.106155 -7.095337E-4c-3.9672852E-4 0 -7.171631E-4 -3.2043457E-4 -7.171631E-4 -7.095337E-4l7.171631E-4 -2.4672089c0 -1.3629913 1.1049194 -2.4679184 2.4679108 -2.4679184z" fill-rule="evenodd"/><path stroke="#999999" stroke-width="2.0" stroke-linejoin="round" stroke-linecap="butt" d="m208.8565 83.80326l80.17105 0c0.654541 0 1.2822571 0.26000977 1.7450867 0.72283936c0.46279907 0.46282196 0.72283936 1.0905457 0.72283936 1.745079l0 2.4679184c0 3.8909912E-4 -3.3569336E-4 7.095337E-4 -7.324219E-4 7.095337E-4l-85.106155 -7.095337E-4c-3.9672852E-4 0 -7.171631E-4 -3.2043457E-4 -7.171631E-4 -7.095337E-4l7.171631E-4 -2.4672089c0 -1.3629913 1.1049194 -2.4679184 2.4679108 -2.4679184z" fill-rule="evenodd"/><path fill="#efefef" d="m208.56616 19.268414l8.347366 0c3.0517578E-5 0 4.5776367E-5 5.722046E-6 6.1035156E-5 1.9073486E-5c0 1.335144E-5 1.5258789E-5 3.0517578E-5 1.5258789E-5 4.9591064E-5l-7.6293945E-5 56.14507c0 2.3050613 -1.8686218 4.173683 -4.1736755 4.173683l0 0c-2.305069 0 -4.173691 -1.8686218 -4.173691 -4.173683l0 -56.145138c0 -4.005432E-5 3.0517578E-5 -7.05719E-5 7.6293945E-5 -7.05719E-5z" fill-rule="evenodd"/></g></svg>