<svg version="1.1" viewBox="0.0 0.0 1180.0 856.0" fill="none" stroke="none" stroke-linecap="square" stroke-miterlimit="10" xmlns:xlink="http://www.w3.org/1999/xlink" xmlns="http://www.w3.org/2000/svg"><clipPath id="p.0"><path d="m0 0l1180.0 0l0 856.0l-1180.0 0l0 -856.0z" clip-rule="nonzero"/></clipPath><g clip-path="url(#p.0)"><path fill="#000000" fill-opacity="0.0" d="m0 0l1180.0 0l0 856.0l-1180.0 0z" fill-rule="evenodd"/><path fill="#009088" d="m145.68504 816.39734l0 -763.2514c0 -4.037838 1.6040192 -7.9102974 4.459198 -10.76548c2.855194 -2.8551826 6.727646 -4.4592056 10.765488 -4.4592056l171.42099 0c0.0036315918 0 0.006591797 0.002960205 0.006591797 0.006614685l-0.006591797 793.6942c0 0.0036010742 -0.002960205 0.006591797 -0.0066223145 0.006591797l-171.41437 -0.006591797c-8.408371 0 -15.224686 -6.816345 -15.224686 -15.224731z" fill-rule="evenodd"/><path fill="#009088" d="m391.17847 37.92126l711.4646 0l0 793.7008l-711.4646 0z" fill-rule="evenodd"/><path fill="#009088" d="m326.3071 105.65092l71.40155 0l0 659.748l-71.40155 0z" fill-rule="evenodd"/><path fill="#009088" d="m1082.7716 326.7979l83.02368 0l0 360.25195l-83.02368 0z" fill-rule="evenodd"/><path fill="#009088" d="m1094.3254 755.1886l0 75.18109l71.4646 -75.18109z" fill-rule="evenodd"/><path fill="#009088" d="m1094.3254 263.9865l0 -75.18111l71.4646 75.18111z" fill-rule="evenodd"/><path fill="#009088" d="m1127.8121 791.7087l0 28.879211c0 2.9243164 -1.1616211 5.728943 -3.2294922 7.796753c-2.067871 2.06781 -4.8724365 3.2295532 -7.796753 3.2295532l-68.53284 0l0 -39.905518z" fill-rule="evenodd"/><path fill="#009088" d="m1043.7244 37.92126l62.698364 0l21.396118 21.39616l0 180.17865l-84.09448 0z" fill-rule="evenodd"/><path fill="#009088" d="m1080.6351 255.76115l76.926636 0l8.23877 8.238785l0 9.776978l-85.165405 0z" fill-rule="evenodd"/><path fill="#009088" d="m1080.6351 763.3007l76.926636 0l8.23877 -8.23877l0 -9.776978l-85.165405 0z" fill-rule="evenodd"/><path fill="#009088" d="m1093.1656 263.89764l72.62988 0l0 72.62991l-72.62988 0zm9.314819 9.314789l0 54.000336l54.000366 0l0 -54.000336z" fill-rule="evenodd"/><path fill="#009088" d="m1149.6696 263.89764l16.125977 16.125977l0 16.125977l-32.251953 -32.251953z" fill-rule="evenodd"/><path fill="#009088" d="m1093.1656 280.02362l16.125977 -16.125977l16.125977 0l-32.251953 32.251953z" fill-rule="evenodd"/><path fill="#009088" d="m1109.2916 336.52756l-16.125977 -16.125977l0 -16.125977l32.251953 32.251953z" fill-rule="evenodd"/><path fill="#009088" d="m1165.7955 320.40158l-16.125977 16.125977l-16.125977 0l32.251953 -32.251953z" fill-rule="evenodd"/><path fill="#01616c" d="m1093.1656 300.2126c0 -20.056183 16.25879 -36.31494 36.31494 -36.31494c9.631348 0 18.868164 3.8260193 25.678589 10.636414c6.810425 6.810364 10.636353 16.04721 10.636353 25.678528c0 20.056213 -16.258667 36.314972 -36.31494 36.314972c-20.056152 0 -36.31494 -16.258759 -36.31494 -36.314972zm10.321411 0c0 14.355835 11.637695 25.99353 25.99353 25.99353c14.355835 0 25.99353 -11.637695 25.99353 -25.99353c0 -14.355804 -11.637695 -25.9935 -25.99353 -25.9935c-14.355835 0 -25.99353 11.637695 -25.99353 25.9935z" fill-rule="evenodd"/><path fill="#009088" d="m1093.1656 682.63446l72.62988 0l0 72.629944l-72.62988 0zm9.314819 9.314819l0 54.000305l54.000366 0l0 -54.000305z" fill-rule="evenodd"/><path fill="#009088" d="m1149.6696 682.63446l16.125977 16.125977l0 16.126038l-32.251953 -32.252014z" fill-rule="evenodd"/><path fill="#009088" d="m1093.1656 698.76044l16.125977 -16.125977l16.125977 0l-32.251953 32.252014z" fill-rule="evenodd"/><path fill="#009088" d="m1109.2916 755.2644l-16.125977 -16.125977l0 -16.125977l32.251953 32.251953z" fill-rule="evenodd"/><path fill="#009088" d="m1165.7955 739.1384l-16.125977 16.125977l-16.125977 0l32.251953 -32.251953z" fill-rule="evenodd"/><path fill="#01616c" d="m1093.1656 718.94946c0 -20.056213 16.25879 -36.315002 36.31494 -36.315002c9.631348 0 18.868164 3.8260498 25.678589 10.636414c6.810425 6.810364 10.636353 16.047241 10.636353 25.678589c0 20.056152 -16.258667 36.31494 -36.31494 36.31494c-20.056152 0 -36.31494 -16.25879 -36.31494 -36.31494zm10.321411 0c0 14.355774 11.637695 25.99353 25.99353 25.99353c14.355835 0 25.99353 -11.637756 25.99353 -25.99353c0 -14.355835 -11.637695 -25.99353 -25.99353 -25.99353c-14.355835 0 -25.99353 11.637695 -25.99353 25.99353z" fill-rule="evenodd"/><path fill="#009088" d="m326.3071 37.92126l72.62991 0l0 72.62991l-72.62991 0zm9.314789 9.314785l0 54.00035l54.000336 0l0 -54.00035z" fill-rule="evenodd"/><path fill="#009088" d="m382.81104 37.92126l16.125977 16.125984l0 16.12598l-32.251984 -32.251965z" fill-rule="evenodd"/><path fill="#009088" d="m326.3071 54.047245l16.125977 -16.125984l16.125977 0l-32.251953 32.251965z" fill-rule="evenodd"/><path fill="#009088" d="m342.43307 110.55118l-16.125977 -16.125984l0 -16.125984l32.251953 32.25197z" fill-rule="evenodd"/><path fill="#009088" d="m398.937 94.42519l-16.125977 16.125984l-16.126007 0l32.251984 -32.25197z" fill-rule="evenodd"/><path fill="#01616c" d="m326.3071 74.23622c0 -20.056198 16.258759 -36.31496 36.31494 -36.31496c9.631348 0 18.868195 3.826027 25.678558 10.636406c6.8103943 6.810375 10.636414 16.04723 10.636414 25.678555c0 20.056198 -16.258759 36.314957 -36.314972 36.314957c-20.056183 0 -36.31494 -16.258759 -36.31494 -36.314957zm10.321411 0c0 14.355827 11.637726 25.993523 25.99353 25.993523c14.355835 0 25.99353 -11.637695 25.99353 -25.993523c0 -14.355827 -11.637695 -25.993523 -25.99353 -25.993523c-14.355804 0 -25.99353 11.637695 -25.99353 25.993523z" fill-rule="evenodd"/><path fill="#009088" d="m326.3071 758.9921l72.62991 0l0 72.629944l-72.62991 0zm9.314789 9.314758l0 54.000366l54.000336 0l0 -54.000366z" fill-rule="evenodd"/><path fill="#009088" d="m382.81104 758.9921l16.125977 16.125977l0 16.125977l-32.251984 -32.251953z" fill-rule="evenodd"/><path fill="#009088" d="m326.3071 775.1181l16.125977 -16.125977l16.125977 0l-32.251953 32.251953z" fill-rule="evenodd"/><path fill="#009088" d="m342.43307 831.6221l-16.125977 -16.126038l0 -16.125977l32.251953 32.252014z" fill-rule="evenodd"/><path fill="#009088" d="m398.937 815.49603l-16.125977 16.126038l-16.126007 0l32.251984 -32.252014z" fill-rule="evenodd"/><path fill="#01616c" d="m326.3071 795.30707c0 -20.056152 16.258759 -36.31494 36.31494 -36.31494c9.631348 0 18.868195 3.8260498 25.678558 10.636414c6.8103943 6.810364 10.636414 16.047241 10.636414 25.678528c0 20.056213 -16.258759 36.315002 -36.314972 36.315002c-20.056183 0 -36.31494 -16.25879 -36.31494 -36.315002zm10.321411 0c0 14.355835 11.637726 25.99353 25.99353 25.99353c14.355835 0 25.99353 -11.637695 25.99353 -25.99353c0 -14.355835 -11.637695 -25.99353 -25.99353 -25.99353c-14.355804 0 -25.99353 11.637695 -25.99353 25.99353z" fill-rule="evenodd"/><path fill="#434343" d="m533.39105 777.3307l590.39374 0l0 42.86615l-590.39374 0z" fill-rule="evenodd"/><path stroke="#000000" stroke-width="2.0" stroke-linejoin="round" stroke-linecap="butt" d="m533.39105 777.3307l590.39374 0l0 42.86615l-590.39374 0z" fill-rule="evenodd"/><path fill="#b7b7b7" d="m35.485565 165.84923l249.25983 0l0 178.67717l-249.25983 0z" fill-rule="evenodd"/><path stroke="#434343" stroke-width="1.0" stroke-linejoin="round" stroke-linecap="butt" d="m35.485565 165.84923l249.25983 0l0 178.67717l-249.25983 0z" fill-rule="evenodd"/><path fill="#434343" d="m566.5676 791.52026l0 14.487061l-14.487061 0l0 -14.487061z" fill-rule="evenodd"/><path fill="#686868" d="m573.4501 784.6378l0 28.251953l-6.8824463 -6.8824463l0 -14.487061z" fill-rule="evenodd"/><path fill="#353535" d="m545.1981 784.6378l6.8824463 6.8824463l0 14.487061l-6.8824463 6.8824463z" fill-rule="evenodd"/><path fill="#8e8e8e" d="m573.4501 784.6378l-6.8824463 6.8824463l-14.487061 0l-6.8824463 -6.8824463z" fill-rule="evenodd"/><path fill="#282828" d="m573.4501 812.8898l-28.251953 0l6.8824463 -6.8824463l14.487061 0z" fill-rule="evenodd"/><path fill="#000000" fill-opacity="0.0" d="m573.4501 784.6378l0 28.251953l-28.251953 0l0 -28.251953zm-6.8824463 6.8824463l0 14.487061l-14.487061 0l0 -14.487061zm6.8824463 -6.8824463l-6.8824463 6.8824463m-21.369507 -6.8824463l6.8824463 6.8824463m21.369507 21.369507l-6.8824463 -6.8824463m-21.369507 6.8824463l6.8824463 -6.8824463" fill-rule="evenodd"/><path stroke="#000000" stroke-width="1.0" stroke-linejoin="round" stroke-linecap="butt" d="m573.4501 784.6378l0 28.251953l-28.251953 0l0 -28.251953zm-6.8824463 6.8824463l0 14.487061l-14.487061 0l0 -14.487061zm6.8824463 -6.8824463l-6.8824463 6.8824463m-21.369507 -6.8824463l6.8824463 6.8824463m21.369507 21.369507l-6.8824463 -6.8824463m-21.369507 6.8824463l6.8824463 -6.8824463" fill-rule="evenodd"/><path fill="#434343" d="m644.12585 791.52026l0 14.487061l-14.4869995 0l0 -14.487061z" fill-rule="evenodd"/><path fill="#686868" d="m651.00836 784.6378l0 28.251953l-6.8825073 -6.8824463l0 -14.487061z" fill-rule="evenodd"/><path fill="#353535" d="m622.75635 784.6378l6.8825073 6.8824463l0 14.487061l-6.8825073 6.8824463z" fill-rule="evenodd"/><path fill="#8e8e8e" d="m651.00836 784.6378l-6.8825073 6.8824463l-14.4869995 0l-6.8825073 -6.8824463z" fill-rule="evenodd"/><path fill="#282828" d="m651.00836 812.8898l-28.252014 0l6.8825073 -6.8824463l14.4869995 0z" fill-rule="evenodd"/><path fill="#000000" fill-opacity="0.0" d="m651.00836 784.6378l0 28.251953l-28.252014 0l0 -28.251953zm-6.8825073 6.8824463l0 14.487061l-14.4869995 0l0 -14.487061zm6.8825073 -6.8824463l-6.8825073 6.8824463m-21.369507 -6.8824463l6.8825073 6.8824463m21.369507 21.369507l-6.8825073 -6.8824463m-21.369507 6.8824463l6.8825073 -6.8824463" fill-rule="evenodd"/><path stroke="#000000" stroke-width="1.0" stroke-linejoin="round" stroke-linecap="butt" d="m651.00836 784.6378l0 28.251953l-28.252014 0l0 -28.251953zm-6.8825073 6.8824463l0 14.487061l-14.4869995 0l0 -14.487061zm6.8825073 -6.8824463l-6.8825073 6.8824463m-21.369507 -6.8824463l6.8825073 6.8824463m21.369507 21.369507l-6.8825073 -6.8824463m-21.369507 6.8824463l6.8825073 -6.8824463" fill-rule="evenodd"/><path fill="#434343" d="m605.34674 791.52026l0 14.487061l-14.487061 0l0 -14.487061z" fill-rule="evenodd"/><path fill="#686868" d="m612.2292 784.6378l0 28.251953l-6.8824463 -6.8824463l0 -14.487061z" fill-rule="evenodd"/><path fill="#353535" d="m583.97723 784.6378l6.8824463 6.8824463l0 14.487061l-6.8824463 6.8824463z" fill-rule="evenodd"/><path fill="#8e8e8e" d="m612.2292 784.6378l-6.8824463 6.8824463l-14.487061 0l-6.8824463 -6.8824463z" fill-rule="evenodd"/><path fill="#282828" d="m612.2292 812.8898l-28.251953 0l6.8824463 -6.8824463l14.487061 0z" fill-rule="evenodd"/><path fill="#000000" fill-opacity="0.0" d="m612.2292 784.6378l0 28.251953l-28.251953 0l0 -28.251953zm-6.8824463 6.8824463l0 14.487061l-14.487061 0l0 -14.487061zm6.8824463 -6.8824463l-6.8824463 6.8824463m-21.369507 -6.8824463l6.8824463 6.8824463m21.369507 21.369507l-6.8824463 -6.8824463m-21.369507 6.8824463l6.8824463 -6.8824463" fill-rule="evenodd"/><path stroke="#000000" stroke-width="1.0" stroke-linejoin="round" stroke-linecap="butt" d="m612.2292 784.6378l0 28.251953l-28.251953 0l0 -28.251953zm-6.8824463 6.8824463l0 14.487061l-14.487061 0l0 -14.487061zm6.8824463 -6.8824463l-6.8824463 6.8824463m-21.369507 -6.8824463l6.8824463 6.8824463m21.369507 21.369507l-6.8824463 -6.8824463m-21.369507 6.8824463l6.8824463 -6.8824463" fill-rule="evenodd"/><path fill="#434343" d="m682.905 791.52026l0 14.487061l-14.487061 0l0 -14.487061z" fill-rule="evenodd"/><path fill="#686868" d="m689.7875 784.6378l0 28.251953l-6.8824463 -6.8824463l0 -14.487061z" fill-rule="evenodd"/><path fill="#353535" d="m661.5355 784.6378l6.8824463 6.8824463l0 14.487061l-6.8824463 6.8824463z" fill-rule="evenodd"/><path fill="#8e8e8e" d="m689.7875 784.6378l-6.8824463 6.8824463l-14.487061 0l-6.8824463 -6.8824463z" fill-rule="evenodd"/><path fill="#282828" d="m689.7875 812.8898l-28.251953 0l6.8824463 -6.8824463l14.487061 0z" fill-rule="evenodd"/><path fill="#000000" fill-opacity="0.0" d="m689.7875 784.6378l0 28.251953l-28.251953 0l0 -28.251953zm-6.8824463 6.8824463l0 14.487061l-14.487061 0l0 -14.487061zm6.8824463 -6.8824463l-6.8824463 6.8824463m-21.369507 -6.8824463l6.8824463 6.8824463m21.369507 21.369507l-6.8824463 -6.8824463m-21.369507 6.8824463l6.8824463 -6.8824463" fill-rule="evenodd"/><path stroke="#000000" stroke-width="1.0" stroke-linejoin="round" stroke-linecap="butt" d="m689.7875 784.6378l0 28.251953l-28.251953 0l0 -28.251953zm-6.8824463 6.8824463l0 14.487061l-14.487061 0l0 -14.487061zm6.8824463 -6.8824463l-6.8824463 6.8824463m-21.369507 -6.8824463l6.8824463 6.8824463m21.369507 21.369507l-6.8824463 -6.8824463m-21.369507 6.8824463l6.8824463 -6.8824463" fill-rule="evenodd"/><path fill="#434343" d="m721.68414 791.52026l0 14.487061l-14.487061 0l0 -14.487061z" fill-rule="evenodd"/><path fill="#686868" d="m728.5666 784.6378l0 28.251953l-6.8824463 -6.8824463l0 -14.487061z" fill-rule="evenodd"/><path fill="#353535" d="m700.31464 784.6378l6.8824463 6.8824463l0 14.487061l-6.8824463 6.8824463z" fill-rule="evenodd"/><path fill="#8e8e8e" d="m728.5666 784.6378l-6.8824463 6.8824463l-14.487061 0l-6.8824463 -6.8824463z" fill-rule="evenodd"/><path fill="#282828" d="m728.5666 812.8898l-28.251953 0l6.8824463 -6.8824463l14.487061 0z" fill-rule="evenodd"/><path fill="#000000" fill-opacity="0.0" d="m728.5666 784.6378l0 28.251953l-28.251953 0l0 -28.251953zm-6.8824463 6.8824463l0 14.487061l-14.487061 0l0 -14.487061zm6.8824463 -6.8824463l-6.8824463 6.8824463m-21.369507 -6.8824463l6.8824463 6.8824463m21.369507 21.369507l-6.8824463 -6.8824463m-21.369507 6.8824463l6.8824463 -6.8824463" fill-rule="evenodd"/><path stroke="#000000" stroke-width="1.0" stroke-linejoin="round" stroke-linecap="butt" d="m728.5666 784.6378l0 28.251953l-28.251953 0l0 -28.251953zm-6.8824463 6.8824463l0 14.487061l-14.487061 0l0 -14.487061zm6.8824463 -6.8824463l-6.8824463 6.8824463m-21.369507 -6.8824463l6.8824463 6.8824463m21.369507 21.369507l-6.8824463 -6.8824463m-21.369507 6.8824463l6.8824463 -6.8824463" fill-rule="evenodd"/><path fill="#434343" d="m760.46326 791.52026l0 14.487061l-14.487061 0l0 -14.487061z" fill-rule="evenodd"/><path fill="#686868" d="m767.3457 784.6378l0 28.251953l-6.8824463 -6.8824463l0 -14.487061z" fill-rule="evenodd"/><path fill="#353535" d="m739.09375 784.6378l6.8824463 6.8824463l0 14.487061l-6.8824463 6.8824463z" fill-rule="evenodd"/><path fill="#8e8e8e" d="m767.3457 784.6378l-6.8824463 6.8824463l-14.487061 0l-6.8824463 -6.8824463z" fill-rule="evenodd"/><path fill="#282828" d="m767.3457 812.8898l-28.251953 0l6.8824463 -6.8824463l14.487061 0z" fill-rule="evenodd"/><path fill="#000000" fill-opacity="0.0" d="m767.3457 784.6378l0 28.251953l-28.251953 0l0 -28.251953zm-6.8824463 6.8824463l0 14.487061l-14.487061 0l0 -14.487061zm6.8824463 -6.8824463l-6.8824463 6.8824463m-21.369507 -6.8824463l6.8824463 6.8824463m21.369507 21.369507l-6.8824463 -6.8824463m-21.369507 6.8824463l6.8824463 -6.8824463" fill-rule="evenodd"/><path stroke="#000000" stroke-width="1.0" stroke-linejoin="round" stroke-linecap="butt" d="m767.3457 784.6378l0 28.251953l-28.251953 0l0 -28.251953zm-6.8824463 6.8824463l0 14.487061l-14.487061 0l0 -14.487061zm6.8824463 -6.8824463l-6.8824463 6.8824463m-21.369507 -6.8824463l6.8824463 6.8824463m21.369507 21.369507l-6.8824463 -6.8824463m-21.369507 6.8824463l6.8824463 -6.8824463" fill-rule="evenodd"/><path fill="#434343" d="m799.2424 791.52026l0 14.487061l-14.487061 0l0 -14.487061z" fill-rule="evenodd"/><path fill="#686868" d="m806.1248 784.6378l0 28.251953l-6.8824463 -6.8824463l0 -14.487061z" fill-rule="evenodd"/><path fill="#353535" d="m777.87286 784.6378l6.8824463 6.8824463l0 14.487061l-6.8824463 6.8824463z" fill-rule="evenodd"/><path fill="#8e8e8e" d="m806.1248 784.6378l-6.8824463 6.8824463l-14.487061 0l-6.8824463 -6.8824463z" fill-rule="evenodd"/><path fill="#282828" d="m806.1248 812.8898l-28.251953 0l6.8824463 -6.8824463l14.487061 0z" fill-rule="evenodd"/><path fill="#000000" fill-opacity="0.0" d="m806.1248 784.6378l0 28.251953l-28.251953 0l0 -28.251953zm-6.8824463 6.8824463l0 14.487061l-14.487061 0l0 -14.487061zm6.8824463 -6.8824463l-6.8824463 6.8824463m-21.369507 -6.8824463l6.8824463 6.8824463m21.369507 21.369507l-6.8824463 -6.8824463m-21.369507 6.8824463l6.8824463 -6.8824463" fill-rule="evenodd"/><path stroke="#000000" stroke-width="1.0" stroke-linejoin="round" stroke-linecap="butt" d="m806.1248 784.6378l0 28.251953l-28.251953 0l0 -28.251953zm-6.8824463 6.8824463l0 14.487061l-14.487061 0l0 -14.487061zm6.8824463 -6.8824463l-6.8824463 6.8824463m-21.369507 -6.8824463l6.8824463 6.8824463m21.369507 21.369507l-6.8824463 -6.8824463m-21.369507 6.8824463l6.8824463 -6.8824463" fill-rule="evenodd"/><path fill="#434343" d="m838.0215 791.52026l0 14.487061l-14.4869995 0l0 -14.487061z" fill-rule="evenodd"/><path fill="#686868" d="m844.904 784.6378l0 28.251953l-6.8825073 -6.8824463l0 -14.487061z" fill-rule="evenodd"/><path fill="#353535" d="m816.652 784.6378l6.8825073 6.8824463l0 14.487061l-6.8825073 6.8824463z" fill-rule="evenodd"/><path fill="#8e8e8e" d="m844.904 784.6378l-6.8825073 6.8824463l-14.4869995 0l-6.8825073 -6.8824463z" fill-rule="evenodd"/><path fill="#282828" d="m844.904 812.8898l-28.252014 0l6.8825073 -6.8824463l14.4869995 0z" fill-rule="evenodd"/><path fill="#000000" fill-opacity="0.0" d="m844.904 784.6378l0 28.251953l-28.252014 0l0 -28.251953zm-6.8825073 6.8824463l0 14.487061l-14.4869995 0l0 -14.487061zm6.8825073 -6.8824463l-6.8825073 6.8824463m-21.369507 -6.8824463l6.8825073 6.8824463m21.369507 21.369507l-6.8825073 -6.8824463m-21.369507 6.8824463l6.8825073 -6.8824463" fill-rule="evenodd"/><path stroke="#000000" stroke-width="1.0" stroke-linejoin="round" stroke-linecap="butt" d="m844.904 784.6378l0 28.251953l-28.252014 0l0 -28.251953zm-6.8825073 6.8824463l0 14.487061l-14.4869995 0l0 -14.487061zm6.8825073 -6.8824463l-6.8825073 6.8824463m-21.369507 -6.8824463l6.8825073 6.8824463m21.369507 21.369507l-6.8825073 -6.8824463m-21.369507 6.8824463l6.8825073 -6.8824463" fill-rule="evenodd"/><path fill="#434343" d="m911.8581 791.52106l0 14.487061l-14.487061 0l0 -14.487061z" fill-rule="evenodd"/><path fill="#686868" d="m918.74054 784.6386l0 28.251953l-6.8824463 -6.8824463l0 -14.487061z" fill-rule="evenodd"/><path fill="#353535" d="m890.4886 784.6386l6.8824463 6.8824463l0 14.487061l-6.8824463 6.8824463z" fill-rule="evenodd"/><path fill="#8e8e8e" d="m918.74054 784.6386l-6.8824463 6.8824463l-14.487061 0l-6.8824463 -6.8824463z" fill-rule="evenodd"/><path fill="#282828" d="m918.74054 812.89056l-28.251953 0l6.8824463 -6.8824463l14.487061 0z" fill-rule="evenodd"/><path fill="#000000" fill-opacity="0.0" d="m918.74054 784.6386l0 28.251953l-28.251953 0l0 -28.251953zm-6.8824463 6.8824463l0 14.487061l-14.487061 0l0 -14.487061zm6.8824463 -6.8824463l-6.8824463 6.8824463m-21.369507 -6.8824463l6.8824463 6.8824463m21.369507 21.369507l-6.8824463 -6.8824463m-21.369507 6.8824463l6.8824463 -6.8824463" fill-rule="evenodd"/><path stroke="#000000" stroke-width="1.0" stroke-linejoin="round" stroke-linecap="butt" d="m918.74054 784.6386l0 28.251953l-28.251953 0l0 -28.251953zm-6.8824463 6.8824463l0 14.487061l-14.487061 0l0 -14.487061zm6.8824463 -6.8824463l-6.8824463 6.8824463m-21.369507 -6.8824463l6.8824463 6.8824463m21.369507 21.369507l-6.8824463 -6.8824463m-21.369507 6.8824463l6.8824463 -6.8824463" fill-rule="evenodd"/><path fill="#434343" d="m950.72314 791.52106l0 14.487061l-14.487061 0l0 -14.487061z" fill-rule="evenodd"/><path fill="#686868" d="m957.6056 784.6386l0 28.251953l-6.8824463 -6.8824463l0 -14.487061z" fill-rule="evenodd"/><path fill="#353535" d="m929.35364 784.6386l6.8824463 6.8824463l0 14.487061l-6.8824463 6.8824463z" fill-rule="evenodd"/><path fill="#8e8e8e" d="m957.6056 784.6386l-6.8824463 6.8824463l-14.487061 0l-6.8824463 -6.8824463z" fill-rule="evenodd"/><path fill="#282828" d="m957.6056 812.89056l-28.251953 0l6.8824463 -6.8824463l14.487061 0z" fill-rule="evenodd"/><path fill="#000000" fill-opacity="0.0" d="m957.6056 784.6386l0 28.251953l-28.251953 0l0 -28.251953zm-6.8824463 6.8824463l0 14.487061l-14.487061 0l0 -14.487061zm6.8824463 -6.8824463l-6.8824463 6.8824463m-21.369507 -6.8824463l6.8824463 6.8824463m21.369507 21.369507l-6.8824463 -6.8824463m-21.369507 6.8824463l6.8824463 -6.8824463" fill-rule="evenodd"/><path stroke="#000000" stroke-width="1.0" stroke-linejoin="round" stroke-linecap="butt" d="m957.6056 784.6386l0 28.251953l-28.251953 0l0 -28.251953zm-6.8824463 6.8824463l0 14.487061l-14.487061 0l0 -14.487061zm6.8824463 -6.8824463l-6.8824463 6.8824463m-21.369507 -6.8824463l6.8824463 6.8824463m21.369507 21.369507l-6.8824463 -6.8824463m-21.369507 6.8824463l6.8824463 -6.8824463" fill-rule="evenodd"/><path fill="#434343" d="m989.5882 791.52106l0 14.487061l-14.487061 0l0 -14.487061z" fill-rule="evenodd"/><path fill="#686868" d="m996.47064 784.6386l0 28.251953l-6.8824463 -6.8824463l0 -14.487061z" fill-rule="evenodd"/><path fill="#353535" d="m968.2187 784.6386l6.8824463 6.8824463l0 14.487061l-6.8824463 6.8824463z" fill-rule="evenodd"/><path fill="#8e8e8e" d="m996.47064 784.6386l-6.8824463 6.8824463l-14.487061 0l-6.8824463 -6.8824463z" fill-rule="evenodd"/><path fill="#282828" d="m996.47064 812.89056l-28.251953 0l6.8824463 -6.8824463l14.487061 0z" fill-rule="evenodd"/><path fill="#000000" fill-opacity="0.0" d="m996.47064 784.6386l0 28.251953l-28.251953 0l0 -28.251953zm-6.8824463 6.8824463l0 14.487061l-14.487061 0l0 -14.487061zm6.8824463 -6.8824463l-6.8824463 6.8824463m-21.369507 -6.8824463l6.8824463 6.8824463m21.369507 21.369507l-6.8824463 -6.8824463m-21.369507 6.8824463l6.8824463 -6.8824463" fill-rule="evenodd"/><path stroke="#000000" stroke-width="1.0" stroke-linejoin="round" stroke-linecap="butt" d="m996.47064 784.6386l0 28.251953l-28.251953 0l0 -28.251953zm-6.8824463 6.8824463l0 14.487061l-14.487061 0l0 -14.487061zm6.8824463 -6.8824463l-6.8824463 6.8824463m-21.369507 -6.8824463l6.8824463 6.8824463m21.369507 21.369507l-6.8824463 -6.8824463m-21.369507 6.8824463l6.8824463 -6.8824463" fill-rule="evenodd"/><path fill="#434343" d="m1028.4532 791.52106l0 14.487061l-14.487061 0l0 -14.487061z" fill-rule="evenodd"/><path fill="#686868" d="m1035.3357 784.6386l0 28.251953l-6.8824463 -6.8824463l0 -14.487061z" fill-rule="evenodd"/><path fill="#353535" d="m1007.08374 784.6386l6.8824463 6.8824463l0 14.487061l-6.8824463 6.8824463z" fill-rule="evenodd"/><path fill="#8e8e8e" d="m1035.3357 784.6386l-6.8824463 6.8824463l-14.487061 0l-6.8824463 -6.8824463z" fill-rule="evenodd"/><path fill="#282828" d="m1035.3357 812.89056l-28.251953 0l6.8824463 -6.8824463l14.487061 0z" fill-rule="evenodd"/><path fill="#000000" fill-opacity="0.0" d="m1035.3357 784.6386l0 28.251953l-28.251953 0l0 -28.251953zm-6.8824463 6.8824463l0 14.487061l-14.487061 0l0 -14.487061zm6.8824463 -6.8824463l-6.8824463 6.8824463m-21.369507 -6.8824463l6.8824463 6.8824463m21.369507 21.369507l-6.8824463 -6.8824463m-21.369507 6.8824463l6.8824463 -6.8824463" fill-rule="evenodd"/><path stroke="#000000" stroke-width="1.0" stroke-linejoin="round" stroke-linecap="butt" d="m1035.3357 784.6386l0 28.251953l-28.251953 0l0 -28.251953zm-6.8824463 6.8824463l0 14.487061l-14.487061 0l0 -14.487061zm6.8824463 -6.8824463l-6.8824463 6.8824463m-21.369507 -6.8824463l6.8824463 6.8824463m21.369507 21.369507l-6.8824463 -6.8824463m-21.369507 6.8824463l6.8824463 -6.8824463" fill-rule="evenodd"/><path fill="#434343" d="m1067.3184 791.52106l0 14.487061l-14.487061 0l0 -14.487061z" fill-rule="evenodd"/><path fill="#686868" d="m1074.2008 784.6386l0 28.251953l-6.8824463 -6.8824463l0 -14.487061z" fill-rule="evenodd"/><path fill="#353535" d="m1045.9489 784.6386l6.8824463 6.8824463l0 14.487061l-6.8824463 6.8824463z" fill-rule="evenodd"/><path fill="#8e8e8e" d="m1074.2008 784.6386l-6.8824463 6.8824463l-14.487061 0l-6.8824463 -6.8824463z" fill-rule="evenodd"/><path fill="#282828" d="m1074.2008 812.89056l-28.251953 0l6.8824463 -6.8824463l14.487061 0z" fill-rule="evenodd"/><path fill="#000000" fill-opacity="0.0" d="m1074.2008 784.6386l0 28.251953l-28.251953 0l0 -28.251953zm-6.8824463 6.8824463l0 14.487061l-14.487061 0l0 -14.487061zm6.8824463 -6.8824463l-6.8824463 6.8824463m-21.369507 -6.8824463l6.8824463 6.8824463m21.369507 21.369507l-6.8824463 -6.8824463m-21.369507 6.8824463l6.8824463 -6.8824463" fill-rule="evenodd"/><path stroke="#000000" stroke-width="1.0" stroke-linejoin="round" stroke-linecap="butt" d="m1074.2008 784.6386l0 28.251953l-28.251953 0l0 -28.251953zm-6.8824463 6.8824463l0 14.487061l-14.487061 0l0 -14.487061zm6.8824463 -6.8824463l-6.8824463 6.8824463m-21.369507 -6.8824463l6.8824463 6.8824463m21.369507 21.369507l-6.8824463 -6.8824463m-21.369507 6.8824463l6.8824463 -6.8824463" fill-rule="evenodd"/><path fill="#434343" d="m1106.1833 791.52106l0 14.487061l-14.487061 0l0 -14.487061z" fill-rule="evenodd"/><path fill="#686868" d="m1113.0658 784.6386l0 28.251953l-6.8824463 -6.8824463l0 -14.487061z" fill-rule="evenodd"/><path fill="#353535" d="m1084.8138 784.6386l6.8824463 6.8824463l0 14.487061l-6.8824463 6.8824463z" fill-rule="evenodd"/><path fill="#8e8e8e" d="m1113.0658 784.6386l-6.8824463 6.8824463l-14.487061 0l-6.8824463 -6.8824463z" fill-rule="evenodd"/><path fill="#282828" d="m1113.0658 812.89056l-28.251953 0l6.8824463 -6.8824463l14.487061 0z" fill-rule="evenodd"/><path fill="#000000" fill-opacity="0.0" d="m1113.0658 784.6386l0 28.251953l-28.251953 0l0 -28.251953zm-6.8824463 6.8824463l0 14.487061l-14.487061 0l0 -14.487061zm6.8824463 -6.8824463l-6.8824463 6.8824463m-21.369507 -6.8824463l6.8824463 6.8824463m21.369507 21.369507l-6.8824463 -6.8824463m-21.369507 6.8824463l6.8824463 -6.8824463" fill-rule="evenodd"/><path stroke="#000000" stroke-width="1.0" stroke-linejoin="round" stroke-linecap="butt" d="m1113.0658 784.6386l0 28.251953l-28.251953 0l0 -28.251953zm-6.8824463 6.8824463l0 14.487061l-14.487061 0l0 -14.487061zm6.8824463 -6.8824463l-6.8824463 6.8824463m-21.369507 -6.8824463l6.8824463 6.8824463m21.369507 21.369507l-6.8824463 -6.8824463m-21.369507 6.8824463l6.8824463 -6.8824463" fill-rule="evenodd"/><path fill="#434343" d="m396.82443 46.63517l724.31494 0l0 42.866142l-724.31494 0z" fill-rule="evenodd"/><path stroke="#000000" stroke-width="2.0" stroke-linejoin="round" stroke-linecap="butt" d="m396.82443 46.63517l724.31494 0l0 42.866142l-724.31494 0z" fill-rule="evenodd"/><path fill="#434343" d="m579.47784 60.823845l0 14.487045l-14.487061 0l0 -14.487045z" fill-rule="evenodd"/><path fill="#686868" d="m586.3603 53.941383l0 28.251968l-6.8824463 -6.8824615l0 -14.487045z" fill-rule="evenodd"/><path fill="#353535" d="m558.10834 53.941383l6.8824463 6.8824615l0 14.487045l-6.8824463 6.8824615z" fill-rule="evenodd"/><path fill="#8e8e8e" d="m586.3603 53.941383l-6.8824463 6.8824615l-14.487061 0l-6.8824463 -6.8824615z" fill-rule="evenodd"/><path fill="#282828" d="m586.3603 82.19335l-28.251953 0l6.8824463 -6.8824615l14.487061 0z" fill-rule="evenodd"/><path fill="#000000" fill-opacity="0.0" d="m586.3603 53.941383l0 28.251968l-28.251953 0l0 -28.251968zm-6.8824463 6.8824615l0 14.487045l-14.487061 0l0 -14.487045zm6.8824463 -6.8824615l-6.8824463 6.8824615m-21.369507 -6.8824615l6.8824463 6.8824615m21.369507 21.369507l-6.8824463 -6.8824615m-21.369507 6.8824615l6.8824463 -6.8824615" fill-rule="evenodd"/><path stroke="#000000" stroke-width="1.0" stroke-linejoin="round" stroke-linecap="butt" d="m586.3603 53.941383l0 28.251968l-28.251953 0l0 -28.251968zm-6.8824463 6.8824615l0 14.487045l-14.487061 0l0 -14.487045zm6.8824463 -6.8824615l-6.8824463 6.8824615m-21.369507 -6.8824615l6.8824463 6.8824615m21.369507 21.369507l-6.8824463 -6.8824615m-21.369507 6.8824615l6.8824463 -6.8824615" fill-rule="evenodd"/><path fill="#434343" d="m657.2166 60.823845l0 14.487045l-14.4869995 0l0 -14.487045z" fill-rule="evenodd"/><path fill="#686868" d="m664.0991 53.941383l0 28.251968l-6.8825073 -6.8824615l0 -14.487045z" fill-rule="evenodd"/><path fill="#353535" d="m635.8471 53.941383l6.8825073 6.8824615l0 14.487045l-6.8825073 6.8824615z" fill-rule="evenodd"/><path fill="#8e8e8e" d="m664.0991 53.941383l-6.8825073 6.8824615l-14.4869995 0l-6.8825073 -6.8824615z" fill-rule="evenodd"/><path fill="#282828" d="m664.0991 82.19335l-28.252014 0l6.8825073 -6.8824615l14.4869995 0z" fill-rule="evenodd"/><path fill="#000000" fill-opacity="0.0" d="m664.0991 53.941383l0 28.251968l-28.252014 0l0 -28.251968zm-6.8825073 6.8824615l0 14.487045l-14.4869995 0l0 -14.487045zm6.8825073 -6.8824615l-6.8825073 6.8824615m-21.369507 -6.8824615l6.8825073 6.8824615m21.369507 21.369507l-6.8825073 -6.8824615m-21.369507 6.8824615l6.8825073 -6.8824615" fill-rule="evenodd"/><path stroke="#000000" stroke-width="1.0" stroke-linejoin="round" stroke-linecap="butt" d="m664.0991 53.941383l0 28.251968l-28.252014 0l0 -28.251968zm-6.8825073 6.8824615l0 14.487045l-14.4869995 0l0 -14.487045zm6.8825073 -6.8824615l-6.8825073 6.8824615m-21.369507 -6.8824615l6.8825073 6.8824615m21.369507 21.369507l-6.8825073 -6.8824615m-21.369507 6.8824615l6.8825073 -6.8824615" fill-rule="evenodd"/><path fill="#434343" d="m618.3479 60.823845l0 14.487045l-14.487061 0l0 -14.487045z" fill-rule="evenodd"/><path fill="#686868" d="m625.23035 53.941383l0 28.251968l-6.8824463 -6.8824615l0 -14.487045z" fill-rule="evenodd"/><path fill="#353535" d="m596.9784 53.941383l6.8824463 6.8824615l0 14.487045l-6.8824463 6.8824615z" fill-rule="evenodd"/><path fill="#8e8e8e" d="m625.23035 53.941383l-6.8824463 6.8824615l-14.487061 0l-6.8824463 -6.8824615z" fill-rule="evenodd"/><path fill="#282828" d="m625.23035 82.19335l-28.251953 0l6.8824463 -6.8824615l14.487061 0z" fill-rule="evenodd"/><path fill="#000000" fill-opacity="0.0" d="m625.23035 53.941383l0 28.251968l-28.251953 0l0 -28.251968zm-6.8824463 6.8824615l0 14.487045l-14.487061 0l0 -14.487045zm6.8824463 -6.8824615l-6.8824463 6.8824615m-21.369507 -6.8824615l6.8824463 6.8824615m21.369507 21.369507l-6.8824463 -6.8824615m-21.369507 6.8824615l6.8824463 -6.8824615" fill-rule="evenodd"/><path stroke="#000000" stroke-width="1.0" stroke-linejoin="round" stroke-linecap="butt" d="m625.23035 53.941383l0 28.251968l-28.251953 0l0 -28.251968zm-6.8824463 6.8824615l0 14.487045l-14.487061 0l0 -14.487045zm6.8824463 -6.8824615l-6.8824463 6.8824615m-21.369507 -6.8824615l6.8824463 6.8824615m21.369507 21.369507l-6.8824463 -6.8824615m-21.369507 6.8824615l6.8824463 -6.8824615" fill-rule="evenodd"/><path fill="#434343" d="m696.08673 60.823845l0 14.487045l-14.487061 0l0 -14.487045z" fill-rule="evenodd"/><path fill="#686868" d="m702.9692 53.941383l0 28.251968l-6.8824463 -6.8824615l0 -14.487045z" fill-rule="evenodd"/><path fill="#353535" d="m674.7172 53.941383l6.8824463 6.8824615l0 14.487045l-6.8824463 6.8824615z" fill-rule="evenodd"/><path fill="#8e8e8e" d="m702.9692 53.941383l-6.8824463 6.8824615l-14.487061 0l-6.8824463 -6.8824615z" fill-rule="evenodd"/><path fill="#282828" d="m702.9692 82.19335l-28.251953 0l6.8824463 -6.8824615l14.487061 0z" fill-rule="evenodd"/><path fill="#000000" fill-opacity="0.0" d="m702.9692 53.941383l0 28.251968l-28.251953 0l0 -28.251968zm-6.8824463 6.8824615l0 14.487045l-14.487061 0l0 -14.487045zm6.8824463 -6.8824615l-6.8824463 6.8824615m-21.369507 -6.8824615l6.8824463 6.8824615m21.369507 21.369507l-6.8824463 -6.8824615m-21.369507 6.8824615l6.8824463 -6.8824615" fill-rule="evenodd"/><path stroke="#000000" stroke-width="1.0" stroke-linejoin="round" stroke-linecap="butt" d="m702.9692 53.941383l0 28.251968l-28.251953 0l0 -28.251968zm-6.8824463 6.8824615l0 14.487045l-14.487061 0l0 -14.487045zm6.8824463 -6.8824615l-6.8824463 6.8824615m-21.369507 -6.8824615l6.8824463 6.8824615m21.369507 21.369507l-6.8824463 -6.8824615m-21.369507 6.8824615l6.8824463 -6.8824615" fill-rule="evenodd"/><path fill="#434343" d="m734.9568 60.823845l0 14.487045l-14.487061 0l0 -14.487045z" fill-rule="evenodd"/><path fill="#686868" d="m741.83923 53.941383l0 28.251968l-6.8824463 -6.8824615l0 -14.487045z" fill-rule="evenodd"/><path fill="#353535" d="m713.5873 53.941383l6.8824463 6.8824615l0 14.487045l-6.8824463 6.8824615z" fill-rule="evenodd"/><path fill="#8e8e8e" d="m741.83923 53.941383l-6.8824463 6.8824615l-14.487061 0l-6.8824463 -6.8824615z" fill-rule="evenodd"/><path fill="#282828" d="m741.83923 82.19335l-28.251953 0l6.8824463 -6.8824615l14.487061 0z" fill-rule="evenodd"/><path fill="#000000" fill-opacity="0.0" d="m741.83923 53.941383l0 28.251968l-28.251953 0l0 -28.251968zm-6.8824463 6.8824615l0 14.487045l-14.487061 0l0 -14.487045zm6.8824463 -6.8824615l-6.8824463 6.8824615m-21.369507 -6.8824615l6.8824463 6.8824615m21.369507 21.369507l-6.8824463 -6.8824615m-21.369507 6.8824615l6.8824463 -6.8824615" fill-rule="evenodd"/><path stroke="#000000" stroke-width="1.0" stroke-linejoin="round" stroke-linecap="butt" d="m741.83923 53.941383l0 28.251968l-28.251953 0l0 -28.251968zm-6.8824463 6.8824615l0 14.487045l-14.487061 0l0 -14.487045zm6.8824463 -6.8824615l-6.8824463 6.8824615m-21.369507 -6.8824615l6.8824463 6.8824615m21.369507 21.369507l-6.8824463 -6.8824615m-21.369507 6.8824615l6.8824463 -6.8824615" fill-rule="evenodd"/><path fill="#434343" d="m773.82684 60.823845l0 14.487045l-14.487061 0l0 -14.487045z" fill-rule="evenodd"/><path fill="#686868" d="m780.7093 53.941383l0 28.251968l-6.8824463 -6.8824615l0 -14.487045z" fill-rule="evenodd"/><path fill="#353535" d="m752.45734 53.941383l6.8824463 6.8824615l0 14.487045l-6.8824463 6.8824615z" fill-rule="evenodd"/><path fill="#8e8e8e" d="m780.7093 53.941383l-6.8824463 6.8824615l-14.487061 0l-6.8824463 -6.8824615z" fill-rule="evenodd"/><path fill="#282828" d="m780.7093 82.19335l-28.251953 0l6.8824463 -6.8824615l14.487061 0z" fill-rule="evenodd"/><path fill="#000000" fill-opacity="0.0" d="m780.7093 53.941383l0 28.251968l-28.251953 0l0 -28.251968zm-6.8824463 6.8824615l0 14.487045l-14.487061 0l0 -14.487045zm6.8824463 -6.8824615l-6.8824463 6.8824615m-21.369507 -6.8824615l6.8824463 6.8824615m21.369507 21.369507l-6.8824463 -6.8824615m-21.369507 6.8824615l6.8824463 -6.8824615" fill-rule="evenodd"/><path stroke="#000000" stroke-width="1.0" stroke-linejoin="round" stroke-linecap="butt" d="m780.7093 53.941383l0 28.251968l-28.251953 0l0 -28.251968zm-6.8824463 6.8824615l0 14.487045l-14.487061 0l0 -14.487045zm6.8824463 -6.8824615l-6.8824463 6.8824615m-21.369507 -6.8824615l6.8824463 6.8824615m21.369507 21.369507l-6.8824463 -6.8824615m-21.369507 6.8824615l6.8824463 -6.8824615" fill-rule="evenodd"/><path fill="#434343" d="m834.70355 60.823845l0 14.487045l-14.487061 0l0 -14.487045z" fill-rule="evenodd"/><path fill="#686868" d="m841.586 53.941383l0 28.251968l-6.8824463 -6.8824615l0 -14.487045z" fill-rule="evenodd"/><path fill="#353535" d="m813.33405 53.941383l6.8824463 6.8824615l0 14.487045l-6.8824463 6.8824615z" fill-rule="evenodd"/><path fill="#8e8e8e" d="m841.586 53.941383l-6.8824463 6.8824615l-14.487061 0l-6.8824463 -6.8824615z" fill-rule="evenodd"/><path fill="#282828" d="m841.586 82.19335l-28.251953 0l6.8824463 -6.8824615l14.487061 0z" fill-rule="evenodd"/><path fill="#000000" fill-opacity="0.0" d="m841.586 53.941383l0 28.251968l-28.251953 0l0 -28.251968zm-6.8824463 6.8824615l0 14.487045l-14.487061 0l0 -14.487045zm6.8824463 -6.8824615l-6.8824463 6.8824615m-21.369507 -6.8824615l6.8824463 6.8824615m21.369507 21.369507l-6.8824463 -6.8824615m-21.369507 6.8824615l6.8824463 -6.8824615" fill-rule="evenodd"/><path stroke="#000000" stroke-width="1.0" stroke-linejoin="round" stroke-linecap="butt" d="m841.586 53.941383l0 28.251968l-28.251953 0l0 -28.251968zm-6.8824463 6.8824615l0 14.487045l-14.487061 0l0 -14.487045zm6.8824463 -6.8824615l-6.8824463 6.8824615m-21.369507 -6.8824615l6.8824463 6.8824615m21.369507 21.369507l-6.8824463 -6.8824615m-21.369507 6.8824615l6.8824463 -6.8824615" fill-rule="evenodd"/><path fill="#434343" d="m873.5756 60.823845l0 14.487045l-14.487061 0l0 -14.487045z" fill-rule="evenodd"/><path fill="#686868" d="m880.45807 53.941383l0 28.251968l-6.8824463 -6.8824615l0 -14.487045z" fill-rule="evenodd"/><path fill="#353535" d="m852.2061 53.941383l6.8824463 6.8824615l0 14.487045l-6.8824463 6.8824615z" fill-rule="evenodd"/><path fill="#8e8e8e" d="m880.45807 53.941383l-6.8824463 6.8824615l-14.487061 0l-6.8824463 -6.8824615z" fill-rule="evenodd"/><path fill="#282828" d="m880.45807 82.19335l-28.251953 0l6.8824463 -6.8824615l14.487061 0z" fill-rule="evenodd"/><path fill="#000000" fill-opacity="0.0" d="m880.45807 53.941383l0 28.251968l-28.251953 0l0 -28.251968zm-6.8824463 6.8824615l0 14.487045l-14.487061 0l0 -14.487045zm6.8824463 -6.8824615l-6.8824463 6.8824615m-21.369507 -6.8824615l6.8824463 6.8824615m21.369507 21.369507l-6.8824463 -6.8824615m-21.369507 6.8824615l6.8824463 -6.8824615" fill-rule="evenodd"/><path stroke="#000000" stroke-width="1.0" stroke-linejoin="round" stroke-linecap="butt" d="m880.45807 53.941383l0 28.251968l-28.251953 0l0 -28.251968zm-6.8824463 6.8824615l0 14.487045l-14.487061 0l0 -14.487045zm6.8824463 -6.8824615l-6.8824463 6.8824615m-21.369507 -6.8824615l6.8824463 6.8824615m21.369507 21.369507l-6.8824463 -6.8824615m-21.369507 6.8824615l6.8824463 -6.8824615" fill-rule="evenodd"/><path fill="#434343" d="m912.4464 60.824635l0 14.487041l-14.487061 0l0 -14.487041z" fill-rule="evenodd"/><path fill="#686868" d="m919.32886 53.942173l0 28.251965l-6.8824463 -6.8824615l0 -14.487041z" fill-rule="evenodd"/><path fill="#353535" d="m891.0769 53.942173l6.8824463 6.8824615l0 14.487041l-6.8824463 6.8824615z" fill-rule="evenodd"/><path fill="#8e8e8e" d="m919.32886 53.942173l-6.8824463 6.8824615l-14.487061 0l-6.8824463 -6.8824615z" fill-rule="evenodd"/><path fill="#282828" d="m919.32886 82.19414l-28.251953 0l6.8824463 -6.8824615l14.487061 0z" fill-rule="evenodd"/><path fill="#000000" fill-opacity="0.0" d="m919.32886 53.942173l0 28.251965l-28.251953 0l0 -28.251965zm-6.8824463 6.8824615l0 14.487041l-14.487061 0l0 -14.487041zm6.8824463 -6.8824615l-6.8824463 6.8824615m-21.369507 -6.8824615l6.8824463 6.8824615m21.369507 21.369503l-6.8824463 -6.8824615m-21.369507 6.8824615l6.8824463 -6.8824615" fill-rule="evenodd"/><path stroke="#000000" stroke-width="1.0" stroke-linejoin="round" stroke-linecap="butt" d="m919.32886 53.942173l0 28.251965l-28.251953 0l0 -28.251965zm-6.8824463 6.8824615l0 14.487041l-14.487061 0l0 -14.487041zm6.8824463 -6.8824615l-6.8824463 6.8824615m-21.369507 -6.8824615l6.8824463 6.8824615m21.369507 21.369503l-6.8824463 -6.8824615m-21.369507 6.8824615l6.8824463 -6.8824615" fill-rule="evenodd"/><path fill="#434343" d="m951.3172 60.824635l0 14.487041l-14.487061 0l0 -14.487041z" fill-rule="evenodd"/><path fill="#686868" d="m958.19965 53.942173l0 28.251965l-6.8824463 -6.8824615l0 -14.487041z" fill-rule="evenodd"/><path fill="#353535" d="m929.9477 53.942173l6.8824463 6.8824615l0 14.487041l-6.8824463 6.8824615z" fill-rule="evenodd"/><path fill="#8e8e8e" d="m958.19965 53.942173l-6.8824463 6.8824615l-14.487061 0l-6.8824463 -6.8824615z" fill-rule="evenodd"/><path fill="#282828" d="m958.19965 82.19414l-28.251953 0l6.8824463 -6.8824615l14.487061 0z" fill-rule="evenodd"/><path fill="#000000" fill-opacity="0.0" d="m958.19965 53.942173l0 28.251965l-28.251953 0l0 -28.251965zm-6.8824463 6.8824615l0 14.487041l-14.487061 0l0 -14.487041zm6.8824463 -6.8824615l-6.8824463 6.8824615m-21.369507 -6.8824615l6.8824463 6.8824615m21.369507 21.369503l-6.8824463 -6.8824615m-21.369507 6.8824615l6.8824463 -6.8824615" fill-rule="evenodd"/><path stroke="#000000" stroke-width="1.0" stroke-linejoin="round" stroke-linecap="butt" d="m958.19965 53.942173l0 28.251965l-28.251953 0l0 -28.251965zm-6.8824463 6.8824615l0 14.487041l-14.487061 0l0 -14.487041zm6.8824463 -6.8824615l-6.8824463 6.8824615m-21.369507 -6.8824615l6.8824463 6.8824615m21.369507 21.369503l-6.8824463 -6.8824615m-21.369507 6.8824615l6.8824463 -6.8824615" fill-rule="evenodd"/><path fill="#434343" d="m990.1879 60.824635l0 14.487041l-14.4869995 0l0 -14.487041z" fill-rule="evenodd"/><path fill="#686868" d="m997.07043 53.942173l0 28.251965l-6.8825073 -6.8824615l0 -14.487041z" fill-rule="evenodd"/><path fill="#353535" d="m968.8184 53.942173l6.8825073 6.8824615l0 14.487041l-6.8825073 6.8824615z" fill-rule="evenodd"/><path fill="#8e8e8e" d="m997.07043 53.942173l-6.8825073 6.8824615l-14.4869995 0l-6.8825073 -6.8824615z" fill-rule="evenodd"/><path fill="#282828" d="m997.07043 82.19414l-28.252014 0l6.8825073 -6.8824615l14.4869995 0z" fill-rule="evenodd"/><path fill="#000000" fill-opacity="0.0" d="m997.07043 53.942173l0 28.251965l-28.252014 0l0 -28.251965zm-6.8825073 6.8824615l0 14.487041l-14.4869995 0l0 -14.487041zm6.8825073 -6.8824615l-6.8825073 6.8824615m-21.369507 -6.8824615l6.8825073 6.8824615m21.369507 21.369503l-6.8825073 -6.8824615m-21.369507 6.8824615l6.8825073 -6.8824615" fill-rule="evenodd"/><path stroke="#000000" stroke-width="1.0" stroke-linejoin="round" stroke-linecap="butt" d="m997.07043 53.942173l0 28.251965l-28.252014 0l0 -28.251965zm-6.8825073 6.8824615l0 14.487041l-14.4869995 0l0 -14.487041zm6.8825073 -6.8824615l-6.8825073 6.8824615m-21.369507 -6.8824615l6.8825073 6.8824615m21.369507 21.369503l-6.8825073 -6.8824615m-21.369507 6.8824615l6.8825073 -6.8824615" fill-rule="evenodd"/><path fill="#434343" d="m1029.0587 60.824635l0 14.487041l-14.4869995 0l0 -14.487041z" fill-rule="evenodd"/><path fill="#686868" d="m1035.9412 53.942173l0 28.251965l-6.8824463 -6.8824615l0 -14.487041z" fill-rule="evenodd"/><path fill="#353535" d="m1007.6892 53.942173l6.8825073 6.8824615l0 14.487041l-6.8825073 6.8824615z" fill-rule="evenodd"/><path fill="#8e8e8e" d="m1035.9412 53.942173l-6.8824463 6.8824615l-14.4869995 0l-6.8825073 -6.8824615z" fill-rule="evenodd"/><path fill="#282828" d="m1035.9412 82.19414l-28.251953 0l6.8825073 -6.8824615l14.4869995 0z" fill-rule="evenodd"/><path fill="#000000" fill-opacity="0.0" d="m1035.9412 53.942173l0 28.251965l-28.251953 0l0 -28.251965zm-6.8824463 6.8824615l0 14.487041l-14.4869995 0l0 -14.487041zm6.8824463 -6.8824615l-6.8824463 6.8824615m-21.369507 -6.8824615l6.8825073 6.8824615m21.369446 21.369503l-6.8824463 -6.8824615m-21.369507 6.8824615l6.8825073 -6.8824615" fill-rule="evenodd"/><path stroke="#000000" stroke-width="1.0" stroke-linejoin="round" stroke-linecap="butt" d="m1035.9412 53.942173l0 28.251965l-28.251953 0l0 -28.251965zm-6.8824463 6.8824615l0 14.487041l-14.4869995 0l0 -14.487041zm6.8824463 -6.8824615l-6.8824463 6.8824615m-21.369507 -6.8824615l6.8825073 6.8824615m21.369446 21.369503l-6.8824463 -6.8824615m-21.369507 6.8824615l6.8825073 -6.8824615" fill-rule="evenodd"/><path fill="#434343" d="m1067.9296 60.824635l0 14.487041l-14.487061 0l0 -14.487041z" fill-rule="evenodd"/><path fill="#686868" d="m1074.812 53.942173l0 28.251965l-6.8824463 -6.8824615l0 -14.487041z" fill-rule="evenodd"/><path fill="#353535" d="m1046.56 53.942173l6.8824463 6.8824615l0 14.487041l-6.8824463 6.8824615z" fill-rule="evenodd"/><path fill="#8e8e8e" d="m1074.812 53.942173l-6.8824463 6.8824615l-14.487061 0l-6.8824463 -6.8824615z" fill-rule="evenodd"/><path fill="#282828" d="m1074.812 82.19414l-28.251953 0l6.8824463 -6.8824615l14.487061 0z" fill-rule="evenodd"/><path fill="#000000" fill-opacity="0.0" d="m1074.812 53.942173l0 28.251965l-28.251953 0l0 -28.251965zm-6.8824463 6.8824615l0 14.487041l-14.487061 0l0 -14.487041zm6.8824463 -6.8824615l-6.8824463 6.8824615m-21.369507 -6.8824615l6.8824463 6.8824615m21.369507 21.369503l-6.8824463 -6.8824615m-21.369507 6.8824615l6.8824463 -6.8824615" fill-rule="evenodd"/><path stroke="#000000" stroke-width="1.0" stroke-linejoin="round" stroke-linecap="butt" d="m1074.812 53.942173l0 28.251965l-28.251953 0l0 -28.251965zm-6.8824463 6.8824615l0 14.487041l-14.487061 0l0 -14.487041zm6.8824463 -6.8824615l-6.8824463 6.8824615m-21.369507 -6.8824615l6.8824463 6.8824615m21.369507 21.369503l-6.8824463 -6.8824615m-21.369507 6.8824615l6.8824463 -6.8824615" fill-rule="evenodd"/><path fill="#434343" d="m1106.799 60.824635l0 14.487041l-14.487061 0l0 -14.487041z" fill-rule="evenodd"/><path fill="#686868" d="m1113.6814 53.942173l0 28.251965l-6.8824463 -6.8824615l0 -14.487041z" fill-rule="evenodd"/><path fill="#353535" d="m1085.4294 53.942173l6.8824463 6.8824615l0 14.487041l-6.8824463 6.8824615z" fill-rule="evenodd"/><path fill="#8e8e8e" d="m1113.6814 53.942173l-6.8824463 6.8824615l-14.487061 0l-6.8824463 -6.8824615z" fill-rule="evenodd"/><path fill="#282828" d="m1113.6814 82.19414l-28.251953 0l6.8824463 -6.8824615l14.487061 0z" fill-rule="evenodd"/><path fill="#000000" fill-opacity="0.0" d="m1113.6814 53.942173l0 28.251965l-28.251953 0l0 -28.251965zm-6.8824463 6.8824615l0 14.487041l-14.487061 0l0 -14.487041zm6.8824463 -6.8824615l-6.8824463 6.8824615m-21.369507 -6.8824615l6.8824463 6.8824615m21.369507 21.369503l-6.8824463 -6.8824615m-21.369507 6.8824615l6.8824463 -6.8824615" fill-rule="evenodd"/><path stroke="#000000" stroke-width="1.0" stroke-linejoin="round" stroke-linecap="butt" d="m1113.6814 53.942173l0 28.251965l-28.251953 0l0 -28.251965zm-6.8824463 6.8824615l0 14.487041l-14.487061 0l0 -14.487041zm6.8824463 -6.8824615l-6.8824463 6.8824615m-21.369507 -6.8824615l6.8824463 6.8824615m21.369507 21.369503l-6.8824463 -6.8824615m-21.369507 6.8824615l6.8824463 -6.8824615" fill-rule="evenodd"/><path fill="#434343" d="m423.99625 60.823845l0 14.487045l-14.487061 0l0 -14.487045z" fill-rule="evenodd"/><path fill="#686868" d="m430.8787 53.941383l0 28.251968l-6.8824463 -6.8824615l0 -14.487045z" fill-rule="evenodd"/><path fill="#353535" d="m402.62674 53.941383l6.8824463 6.8824615l0 14.487045l-6.8824463 6.8824615z" fill-rule="evenodd"/><path fill="#8e8e8e" d="m430.8787 53.941383l-6.8824463 6.8824615l-14.487061 0l-6.8824463 -6.8824615z" fill-rule="evenodd"/><path fill="#282828" d="m430.8787 82.19335l-28.251953 0l6.8824463 -6.8824615l14.487061 0z" fill-rule="evenodd"/><path fill="#000000" fill-opacity="0.0" d="m430.8787 53.941383l0 28.251968l-28.251953 0l0 -28.251968zm-6.8824463 6.8824615l0 14.487045l-14.487061 0l0 -14.487045zm6.8824463 -6.8824615l-6.8824463 6.8824615m-21.369507 -6.8824615l6.8824463 6.8824615m21.369507 21.369507l-6.8824463 -6.8824615m-21.369507 6.8824615l6.8824463 -6.8824615" fill-rule="evenodd"/><path stroke="#000000" stroke-width="1.0" stroke-linejoin="round" stroke-linecap="butt" d="m430.8787 53.941383l0 28.251968l-28.251953 0l0 -28.251968zm-6.8824463 6.8824615l0 14.487045l-14.487061 0l0 -14.487045zm6.8824463 -6.8824615l-6.8824463 6.8824615m-21.369507 -6.8824615l6.8824463 6.8824615m21.369507 21.369507l-6.8824463 -6.8824615m-21.369507 6.8824615l6.8824463 -6.8824615" fill-rule="evenodd"/><path fill="#434343" d="m501.73636 60.823845l0 14.487045l-14.48703 0l0 -14.487045z" fill-rule="evenodd"/><path fill="#686868" d="m508.61884 53.941383l0 28.251968l-6.882477 -6.8824615l0 -14.487045z" fill-rule="evenodd"/><path fill="#353535" d="m480.36685 53.941383l6.882477 6.8824615l0 14.487045l-6.882477 6.8824615z" fill-rule="evenodd"/><path fill="#8e8e8e" d="m508.61884 53.941383l-6.882477 6.8824615l-14.48703 0l-6.882477 -6.8824615z" fill-rule="evenodd"/><path fill="#282828" d="m508.61884 82.19335l-28.251984 0l6.882477 -6.8824615l14.48703 0z" fill-rule="evenodd"/><path fill="#000000" fill-opacity="0.0" d="m508.61884 53.941383l0 28.251968l-28.251984 0l0 -28.251968zm-6.882477 6.8824615l0 14.487045l-14.48703 0l0 -14.487045zm6.882477 -6.8824615l-6.882477 6.8824615m-21.369507 -6.8824615l6.882477 6.8824615m21.369507 21.369507l-6.882477 -6.8824615m-21.369507 6.8824615l6.882477 -6.8824615" fill-rule="evenodd"/><path stroke="#000000" stroke-width="1.0" stroke-linejoin="round" stroke-linecap="butt" d="m508.61884 53.941383l0 28.251968l-28.251984 0l0 -28.251968zm-6.882477 6.8824615l0 14.487045l-14.48703 0l0 -14.487045zm6.882477 -6.8824615l-6.882477 6.8824615m-21.369507 -6.8824615l6.882477 6.8824615m21.369507 21.369507l-6.882477 -6.8824615m-21.369507 6.8824615l6.882477 -6.8824615" fill-rule="evenodd"/><path fill="#434343" d="m462.8663 60.823845l0 14.487045l-14.48703 0l0 -14.487045z" fill-rule="evenodd"/><path fill="#686868" d="m469.74878 53.941383l0 28.251968l-6.882477 -6.8824615l0 -14.487045z" fill-rule="evenodd"/><path fill="#353535" d="m441.4968 53.941383l6.882477 6.8824615l0 14.487045l-6.882477 6.8824615z" fill-rule="evenodd"/><path fill="#8e8e8e" d="m469.74878 53.941383l-6.882477 6.8824615l-14.48703 0l-6.882477 -6.8824615z" fill-rule="evenodd"/><path fill="#282828" d="m469.74878 82.19335l-28.251984 0l6.882477 -6.8824615l14.48703 0z" fill-rule="evenodd"/><path fill="#000000" fill-opacity="0.0" d="m469.74878 53.941383l0 28.251968l-28.251984 0l0 -28.251968zm-6.882477 6.8824615l0 14.487045l-14.48703 0l0 -14.487045zm6.882477 -6.8824615l-6.882477 6.8824615m-21.369507 -6.8824615l6.882477 6.8824615m21.369507 21.369507l-6.882477 -6.8824615m-21.369507 6.8824615l6.882477 -6.8824615" fill-rule="evenodd"/><path stroke="#000000" stroke-width="1.0" stroke-linejoin="round" stroke-linecap="butt" d="m469.74878 53.941383l0 28.251968l-28.251984 0l0 -28.251968zm-6.882477 6.8824615l0 14.487045l-14.48703 0l0 -14.487045zm6.882477 -6.8824615l-6.882477 6.8824615m-21.369507 -6.8824615l6.882477 6.8824615m21.369507 21.369507l-6.882477 -6.8824615m-21.369507 6.8824615l6.882477 -6.8824615" fill-rule="evenodd"/><path fill="#434343" d="m540.6077 60.823845l0 14.487045l-14.4869995 0l0 -14.487045z" fill-rule="evenodd"/><path fill="#686868" d="m547.49023 53.941383l0 28.251968l-6.8825073 -6.8824615l0 -14.487045z" fill-rule="evenodd"/><path fill="#353535" d="m519.2382 53.941383l6.8825073 6.8824615l0 14.487045l-6.8825073 6.8824615z" fill-rule="evenodd"/><path fill="#8e8e8e" d="m547.49023 53.941383l-6.8825073 6.8824615l-14.4869995 0l-6.8825073 -6.8824615z" fill-rule="evenodd"/><path fill="#282828" d="m547.49023 82.19335l-28.252014 0l6.8825073 -6.8824615l14.4869995 0z" fill-rule="evenodd"/><path fill="#000000" fill-opacity="0.0" d="m547.49023 53.941383l0 28.251968l-28.252014 0l0 -28.251968zm-6.8825073 6.8824615l0 14.487045l-14.4869995 0l0 -14.487045zm6.8825073 -6.8824615l-6.8825073 6.8824615m-21.369507 -6.8824615l6.8825073 6.8824615m21.369507 21.369507l-6.8825073 -6.8824615m-21.369507 6.8824615l6.8825073 -6.8824615" fill-rule="evenodd"/><path stroke="#000000" stroke-width="1.0" stroke-linejoin="round" stroke-linecap="butt" d="m547.49023 53.941383l0 28.251968l-28.252014 0l0 -28.251968zm-6.8825073 6.8824615l0 14.487045l-14.4869995 0l0 -14.487045zm6.8825073 -6.8824615l-6.8825073 6.8824615m-21.369507 -6.8824615l6.8825073 6.8824615m21.369507 21.369507l-6.8825073 -6.8824615m-21.369507 6.8824615l6.8825073 -6.8824615" fill-rule="evenodd"/><path fill="#434343" d="m287.97638 651.8216c0 -2.600525 2.1081848 -4.70874 4.70874 -4.70874l18.834473 0c1.2488403 0 2.4465332 0.49609375 3.3295898 1.3791504c0.88305664 0.88305664 1.3791504 2.0807495 1.3791504 3.3295898l0 118.26758c0 2.600525 -2.1081543 4.70874 -4.70874 4.70874l-18.834473 0c-2.6005554 0 -4.70874 -2.1082153 -4.70874 -4.70874z" fill-rule="evenodd"/><path stroke="#000000" stroke-width="1.0" stroke-linejoin="round" stroke-linecap="butt" d="m287.97638 651.8216c0 -2.600525 2.1081848 -4.70874 4.70874 -4.70874l18.834473 0c1.2488403 0 2.4465332 0.49609375 3.3295898 1.3791504c0.88305664 0.88305664 1.3791504 2.0807495 1.3791504 3.3295898l0 118.26758c0 2.600525 -2.1081543 4.70874 -4.70874 4.70874l-18.834473 0c-2.6005554 0 -4.70874 -2.1082153 -4.70874 -4.70874z" fill-rule="evenodd"/><path fill="#434343" d="m153.86613 644.8163l135.30708 0l0 132.28345l-135.30708 0z" fill-rule="evenodd"/><path stroke="#000000" stroke-width="1.0" stroke-linejoin="round" stroke-linecap="butt" d="m153.86613 644.8163l135.30708 0l0 132.28345l-135.30708 0z" fill-rule="evenodd"/><path fill="#434343" d="m106.55905 639.9764l47.307083 0l0 141.95276l-47.307083 0z" fill-rule="evenodd"/><path stroke="#000000" stroke-width="1.0" stroke-linejoin="round" stroke-linecap="butt" d="m106.55905 639.9764l47.307083 0l0 141.95276l-47.307083 0z" fill-rule="evenodd"/><path fill="#b7b7b7" d="m191.23885 46.17638l90.3307 0l0 92.18898l-90.3307 0z" fill-rule="evenodd"/><path stroke="#434343" stroke-width="1.0" stroke-linejoin="round" stroke-linecap="butt" d="m191.23885 46.17638l90.3307 0l0 92.18898l-90.3307 0z" fill-rule="evenodd"/><path fill="#d9d9d9" d="m212.75066 92.27034c0 -13.063492 10.590057 -23.653542 23.65355 -23.653542c6.2733 0 12.289673 2.4920654 16.72557 6.9279633c4.435898 4.435898 6.9279633 10.4522705 6.9279633 16.725578c0 13.063492 -10.590042 23.653542 -23.653534 23.653542c-13.063492 0 -23.65355 -10.59005 -23.65355 -23.653542z" fill-rule="evenodd"/><path stroke="#434343" stroke-width="1.0" stroke-linejoin="round" stroke-linecap="butt" d="m212.75066 92.27034c0 -13.063492 10.590057 -23.653542 23.65355 -23.653542c6.2733 0 12.289673 2.4920654 16.72557 6.9279633c4.435898 4.435898 6.9279633 10.4522705 6.9279633 16.725578c0 13.063492 -10.590042 23.653542 -23.653534 23.653542c-13.063492 0 -23.65355 -10.59005 -23.65355 -23.653542z" fill-rule="evenodd"/></g></svg>